<svg xmlns="http://www.w3.org/2000/svg" viewBox="0 0 1200 1407.84" width="1200" height="1407.84">
<rect x="0" y="0" width="1200" height="1407.84" fill="white"/>
<g class="layer-structural">
<g class="walls">
<g fill="#000" stroke="none">
<rect x="239.2" y="382.72" width="360.8" height="25.91"/>
<rect x="839.2" y="382.72" width="121.59" height="25.91"/>
</g>
<g fill="#000" stroke="none">
<rect x="239.2" y="982.72" width="121.59" height="25.91"/>
<rect x="504.32" y="982.72" width="456.48" height="25.91"/>
</g>
<g fill="#000" stroke="none">
<rect x="934.88" y="791.36" width="25.91" height="191.36"/>
<rect x="934.88" y="408.64" width="25.91" height="191.36"/>
</g>
<rect x="239.2" y="408.64" width="25.91" height="574.09" stroke="none" fill="#000"/>
<g fill="#333" stroke="none">
<rect x="438.54" y="647.84" width="17.94" height="47.84"/>
<rect x="438.54" y="408.64" width="17.94" height="119.6"/>
</g>
<rect x="265.12" y="677.74" width="191.36" height="17.94" stroke="none" fill="#333"/>
<g fill="#000" stroke="none">
<rect x="574.09" y="239.2" width="49.83" height="25.91"/>
<rect x="815.28" y="239.2" width="49.83" height="25.91"/>
</g>
<rect x="839.2" y="265.12" width="25.91" height="143.52" stroke="none" fill="#000"/>
<rect x="574.09" y="265.12" width="25.91" height="143.52" stroke="none" fill="#000"/>
</g>
<g class="opening door" stroke="#000" stroke-width="0.35mm" fill="none">
<line x1="504.32" y1="1008.64" x2="504.32" y2="865.12"/>
<path d="M 504.32,865.12 A 143.52,143.52 0 0,0 360.8,1008.64"/>
</g>
<g class="opening window" stroke="#000" stroke-width="0.35mm" fill="none">
<line x1="941.36" y1="791.36" x2="941.36" y2="600"/>
<line x1="954.32" y1="791.36" x2="954.32" y2="600"/>
</g>
<g class="opening door" stroke="#000" stroke-width="0.35mm" fill="none">
<line x1="438.54" y1="647.84" x2="318.94" y2="647.84"/>
<path d="M 318.94,647.84 A 119.6,119.6 0 0,1 438.54,528.24"/>
</g>
<g class="opening window" stroke="#000" stroke-width="0.35mm" fill="none">
<line x1="623.92" y1="245.68" x2="815.28" y2="245.68"/>
<line x1="623.92" y1="258.64" x2="815.28" y2="258.64"/>
</g>
</g>
<g class="layer-labels">
<text x="600" y="695.68" fill="#000" font-family="'Helvetica','Arial',sans-serif" font-size="23.92" font-weight="500" text-anchor="middle" dominant-baseline="central">Primary Bedroom</text>
<text x="360.8" y="552.16" fill="#000" font-family="'Helvetica','Arial',sans-serif" font-size="23.92" font-weight="500" text-anchor="middle" dominant-baseline="central">Walk-in Closet</text>
<text x="719.6" y="336.88" fill="#000" font-family="'Helvetica','Arial',sans-serif" font-size="23.92" font-weight="500" text-anchor="middle" dominant-baseline="central">Window Nook</text>
</g>
<g class="layer-dimensions">
<g class="chain-dimension" stroke="#555" stroke-width="0.18mm">
<line x1="239.2" y1="375.55" x2="239.2" y2="136.35"/>
<line x1="265.12" y1="375.55" x2="265.12" y2="136.35"/>
<line x1="934.88" y1="375.55" x2="934.88" y2="136.35"/>
<line x1="960.8" y1="375.55" x2="960.8" y2="136.35"/>
<line x1="239.2" y1="143.52" x2="960.8" y2="143.52"/>
<line x1="232.03" y1="150.7" x2="246.38" y2="136.35"/>
<line x1="257.94" y1="150.7" x2="272.29" y2="136.35"/>
<line x1="927.71" y1="150.7" x2="942.06" y2="136.35"/>
<text x="600" y="131.56" stroke="none" fill="#000" font-family="'Helvetica','Arial',sans-serif" font-size="16.74" text-anchor="middle">14&apos;-0&quot;</text>
<line x1="953.62" y1="150.7" x2="967.97" y2="136.35"/>
</g>
<g class="chain-dimension" stroke="#555" stroke-width="0.18mm">
<line x1="232.03" y1="1008.64" x2="136.35" y2="1008.64"/>
<line x1="232.03" y1="982.72" x2="136.35" y2="982.72"/>
<line x1="232.03" y1="408.64" x2="136.35" y2="408.64"/>
<line x1="232.03" y1="382.72" x2="136.35" y2="382.72"/>
<line x1="143.52" y1="1008.64" x2="143.52" y2="382.72"/>
<line x1="136.35" y1="1015.81" x2="150.7" y2="1001.46"/>
<line x1="136.35" y1="989.9" x2="150.7" y2="975.55"/>
<line x1="136.35" y1="415.81" x2="150.7" y2="401.46"/>
<text x="131.56" y="695.68" stroke="none" fill="#000" font-family="'Helvetica','Arial',sans-serif" font-size="16.74" text-anchor="middle" transform="rotate(-90, 131.56, 695.68)">12&apos;-0&quot;</text>
<line x1="136.35" y1="389.9" x2="150.7" y2="375.55"/>
</g>
<g class="chain-dimension" stroke="#555" stroke-width="0.18mm">
<line x1="600" y1="232.03" x2="600" y2="184.19"/>
<line x1="839.2" y1="232.03" x2="839.2" y2="184.19"/>
<line x1="600" y1="191.36" x2="839.2" y2="191.36"/>
<line x1="592.82" y1="198.54" x2="607.18" y2="184.19"/>
<line x1="832.03" y1="198.54" x2="846.38" y2="184.19"/>
<text x="719.6" y="179.4" stroke="none" fill="#000" font-family="'Helvetica','Arial',sans-serif" font-size="16.74" text-anchor="middle">5&apos;-0&quot;</text>
</g>
<g class="chain-dimension" stroke="#555" stroke-width="0.18mm">
<line x1="967.97" y1="408.64" x2="1015.81" y2="408.64"/>
<line x1="872.29" y1="265.12" x2="1015.81" y2="265.12"/>
<line x1="1008.64" y1="408.64" x2="1008.64" y2="265.12"/>
<line x1="1001.46" y1="415.81" x2="1015.81" y2="401.46"/>
<line x1="1001.46" y1="272.29" x2="1015.81" y2="257.94"/>
<text x="996.68" y="336.88" stroke="none" fill="#000" font-family="'Helvetica','Arial',sans-serif" font-size="16.74" text-anchor="middle" transform="rotate(-90, 996.68, 336.88)">3&apos;-0&quot;</text>
</g>
<g class="chain-dimension" stroke="#555" stroke-width="0.18mm">
<line x1="463.65" y1="695.68" x2="511.5" y2="695.68"/>
<line x1="463.65" y1="408.64" x2="511.5" y2="408.64"/>
<line x1="504.32" y1="695.68" x2="504.32" y2="408.64"/>
<line x1="497.14" y1="702.86" x2="511.5" y2="688.5"/>
<line x1="497.14" y1="415.81" x2="511.5" y2="401.46"/>
<text x="492.36" y="552.16" stroke="none" fill="#000" font-family="'Helvetica','Arial',sans-serif" font-size="16.74" text-anchor="middle" transform="rotate(-90, 492.36, 552.16)">6&apos;-0&quot;</text>
</g>
<g class="chain-dimension" stroke="#555" stroke-width="0.18mm">
<line x1="265.12" y1="702.86" x2="265.12" y2="750.7"/>
<line x1="456.48" y1="702.86" x2="456.48" y2="750.7"/>
<line x1="265.12" y1="743.52" x2="456.48" y2="743.52"/>
<line x1="257.94" y1="750.7" x2="272.29" y2="736.35"/>
<line x1="449.3" y1="750.7" x2="463.65" y2="736.35"/>
<text x="360.8" y="731.56" stroke="none" fill="#000" font-family="'Helvetica','Arial',sans-serif" font-size="16.74" text-anchor="middle">4&apos;-0&quot;</text>
</g>
</g>
<g class="layer-title-block">
<g class="title-block" font-family="'Helvetica','Arial',sans-serif" fill="#000">
<rect x="830" y="1247.84" width="350" height="140" stroke="#000" stroke-width="0.50" fill="white"/>
<line x1="830" y1="1337.84" x2="1180" y2="1337.84" stroke="#000" stroke-width="0.35"/>
<text x="842" y="1271.84" font-size="18" font-weight="bold">Bedroom with Closet and Window Nook</text>
<text x="842" y="1375.84" font-size="12">Scale: 1/4in = 1ft</text>
<text x="1015" y="1375.84" fill="#666" font-size="10">FloorScript v0.1</text>
</g>
</g>
</svg>