<svg xmlns="http://www.w3.org/2000/svg" viewBox="0 0 1200 1232.85" width="1200" height="1232.85">
<rect x="0" y="0" width="1200" height="1232.85" fill="white"/>
<g class="layer-structural">
<g class="walls">
<rect x="190.73" y="190.73" width="818.54" height="31.79" stroke="none" fill="#000"/>
<rect x="190.73" y="858.28" width="818.54" height="23.84" stroke="none" fill="#333"/>
<rect x="985.43" y="731.13" width="23.84" height="127.15" stroke="none" fill="#333"/>
<g fill="#000" stroke="none">
<rect x="190.73" y="667.55" width="31.79" height="190.73"/>
<rect x="190.73" y="222.52" width="31.79" height="190.73"/>
</g>
</g>
<g class="opening cased-opening" stroke="#000" stroke-width="0.35mm" fill="none">
<line x1="985.43" y1="731.13" x2="1009.27" y2="731.13"/>
<line x1="985.43" y1="731.13" x2="985.43" y2="766.89"/>
<line x1="1009.27" y1="731.13" x2="1009.27" y2="766.89"/>
<line x1="985.43" y1="222.52" x2="1009.27" y2="222.52"/>
<line x1="985.43" y1="222.52" x2="985.43" y2="186.75"/>
<line x1="1009.27" y1="222.52" x2="1009.27" y2="186.75"/>
</g>
<g class="opening window" stroke="#000" stroke-width="0.35mm" fill="none">
<line x1="198.68" y1="667.55" x2="198.68" y2="413.25"/>
<line x1="214.57" y1="667.55" x2="214.57" y2="413.25"/>
</g>
</g>
<g class="layer-labels">
<text x="603.97" y="540.4" fill="#000" font-family="'Helvetica','Arial',sans-serif" font-size="31.79" font-weight="500" text-anchor="middle" dominant-baseline="central">Kitchen</text>
</g>
<g class="layer-dimensions">
<g class="dimension" stroke="#555" stroke-width="0.18mm">
<line x1="222.52" y1="985.43" x2="985.43" y2="985.43"/>
<line x1="212.98" y1="994.97" x2="232.05" y2="975.89"/>
<line x1="975.89" y1="994.97" x2="994.97" y2="975.89"/>
<text x="603.97" y="969.54" stroke="none" fill="#000" font-family="'Helvetica','Arial',sans-serif" font-size="22.25" text-anchor="middle">12&apos;-0&quot;</text>
</g>
<g class="dimension" stroke="#555" stroke-width="0.18mm">
<line x1="95.36" y1="858.28" x2="95.36" y2="222.52"/>
<line x1="85.83" y1="867.81" x2="104.9" y2="848.74"/>
<line x1="85.83" y1="232.05" x2="104.9" y2="212.98"/>
<text x="79.47" y="540.4" stroke="none" fill="#000" font-family="'Helvetica','Arial',sans-serif" font-size="22.25" text-anchor="middle" transform="rotate(-90, 79.47, 540.4)">10&apos;-0&quot;</text>
</g>
</g>
<g class="layer-title-block">
<g class="title-block" font-family="'Helvetica','Arial',sans-serif" fill="#000">
<rect x="830" y="1072.85" width="350" height="140" stroke="#000" stroke-width="0.50" fill="white"/>
<line x1="830" y1="1162.85" x2="1180" y2="1162.85" stroke="#000" stroke-width="0.35"/>
<text x="842" y="1096.85" font-size="18" font-weight="bold">Kitchen Renovation - 123 Main St</text>
<text x="842" y="1118.85" font-size="13">123 Main Street, Anytown, ST 12345</text>
<text x="842" y="1138.85" font-size="13">Jane Smith</text>
<text x="842" y="1182.85" font-size="12">Sheet: A1</text>
<text x="1015" y="1182.85" font-size="12">Date: 2026-02-11</text>
<text x="842" y="1200.85" font-size="12">Scale: 1/4in = 1ft</text>
<text x="1015" y="1200.85" fill="#666" font-size="10">FloorScript v0.1</text>
</g>
</g>
</svg>