<svg xmlns="http://www.w3.org/2000/svg" viewBox="0 0 1200 1240" width="1200" height="1240">
<style>
  .wall-exterior { fill: #000; stroke: none; }
  .wall-interior { fill: #333; stroke: none; }
  .wall-load-bearing { fill: #333; stroke: none; }
  .opening line, .opening path { stroke: #000; stroke-width: 0.35mm; fill: none; }
  .dimension line { stroke: #555; stroke-width: 0.18mm; }
  .label { font-family: 'Helvetica', 'Arial', sans-serif; fill: #000; }
  .title-block .label { font-family: 'Helvetica', 'Arial', sans-serif; fill: #000; }
</style>
<rect x="0" y="0" width="1200" height="1240" fill="white"/>
<g class="layer-structural">
<g class="room" id="room-kitchen">
<g class="walls">
<rect x="240" y="240" width="720" height="30" class="wall-exterior"/>
<rect x="240" y="817.5" width="720" height="22.5" class="wall-interior"/>
<rect x="937.5" y="240" width="22.5" height="600" class="wall-interior"/>
<g class="wall-exterior">
<rect x="240" y="660" width="30" height="180"/>
<rect x="240" y="240" width="30" height="180"/>
</g>
</g>
</g>
<g class="opening window">
<line x1="247.5" y1="660" x2="247.5" y2="420"/>
<line x1="262.5" y1="660" x2="262.5" y2="420"/>
</g>
</g>
<g class="layer-labels">
<text x="600" y="540" class="label" font-size="30" font-weight="500" text-anchor="middle" dominant-baseline="central">Kitchen</text>
</g>
<g class="layer-dimensions">
<g class="dimension">
<line x1="240" y1="960" x2="960" y2="960"/>
<line x1="231" y1="969" x2="249" y2="951"/>
<line x1="951" y1="969" x2="969" y2="951"/>
<text x="600" y="945" class="label" font-size="21" text-anchor="middle">12&apos;-0&quot;</text>
</g>
<g class="dimension">
<line x1="120" y1="840" x2="120" y2="240"/>
<line x1="111" y1="849" x2="129" y2="831"/>
<line x1="111" y1="249" x2="129" y2="231"/>
<text x="105" y="540" class="label" font-size="21" text-anchor="middle" transform="rotate(-90, 105, 540)">10&apos;-0&quot;</text>
</g>
</g>
<g class="layer-title-block">
<g class="title-block">
<rect x="830" y="1080" width="350" height="140" fill="white" stroke="#000" stroke-width="0.5"/>
<line x1="830" y1="1170" x2="1180" y2="1170" stroke="#000" stroke-width="0.35"/>
<text x="842" y="1104" class="label" font-size="18" font-weight="bold">Kitchen Renovation - 123 Main St</text>
<text x="842" y="1126" class="label" font-size="13">123 Main Street, Anytown, ST 12345</text>
<text x="842" y="1146" class="label" font-size="13">Jane Smith</text>
<text x="842" y="1190" class="label" font-size="12">Sheet: A1</text>
<text x="1015" y="1190" class="label" font-size="12">Date: 2026-02-11</text>
<text x="842" y="1208" class="label" font-size="12">Scale: 1/4in = 1ft</text>
<text x="1015" y="1208" class="label" font-size="10" fill="#666">FloorScript v0.1</text>
</g>
</g>
</svg>