<svg xmlns="http://www.w3.org/2000/svg" viewBox="0 0 1200 1080" width="1200" height="1080">
<style>
  .wall-exterior { fill: #000; stroke: #000; stroke-width: 0.7mm; }
  .wall-interior { fill: #333; stroke: #333; stroke-width: 0.5mm; }
  .wall-load-bearing { fill: #333; stroke: #333; stroke-width: 0.5mm; }
  .opening line, .opening path { stroke: #000; stroke-width: 0.35mm; fill: none; }
  .dimension line { stroke: #000; stroke-width: 0.18mm; }
  .label { font-family: 'Helvetica', 'Arial', sans-serif; fill: #000; }
  .room-label { font-size: 14px; font-weight: 500; }
  .dim-label { font-size: 10px; }
  .title-block .label { font-family: 'Helvetica', 'Arial', sans-serif; fill: #000; }
</style>
<rect x="0" y="0" width="1200" height="1080" fill="white"/>
<g class="layer-structural">
<g class="room" id="room-kitchen">
<g class="walls">
<rect x="240" y="240" width="720" height="30" class="wall-exterior"/>
<rect x="240" y="817.5" width="720" height="22.5" class="wall-interior"/>
<rect x="937.5" y="240" width="22.5" height="600" class="wall-interior"/>
<g class="wall-exterior">
<rect x="240" y="660" width="30" height="180"/>
<rect x="240" y="240" width="30" height="180"/>
</g>
</g>
</g>
<g class="opening window">
<line x1="232.5" y1="660" x2="232.5" y2="420"/>
<line x1="247.5" y1="660" x2="247.5" y2="420"/>
</g>
</g>
<g class="layer-labels">
<text x="600" y="540" class="label room-label" text-anchor="middle" dominant-baseline="central">Kitchen</text>
</g>
<g class="layer-dimensions">
<g class="dimension">
<line x1="240" y1="960" x2="960" y2="960"/>
<line x1="236" y1="964" x2="244" y2="956"/>
<line x1="956" y1="964" x2="964" y2="956"/>
<text x="600" y="954" class="label dim-label" text-anchor="middle">12&apos;-0&quot;</text>
</g>
<g class="dimension">
<line x1="120" y1="840" x2="120" y2="240"/>
<line x1="116" y1="844" x2="124" y2="836"/>
<line x1="116" y1="244" x2="124" y2="236"/>
<text x="114" y="540" class="label dim-label" text-anchor="middle" transform="rotate(-90, 114, 540)">10&apos;-0&quot;</text>
</g>
</g>
<g class="layer-title-block">
<g class="title-block">
<rect x="930" y="940" width="250" height="120" fill="white" stroke="#000" stroke-width="0.35mm"/>
<line x1="930" y1="1015" x2="1180" y2="1015" stroke="#000" stroke-width="0.25mm"/>
<text x="940" y="960" class="label" font-size="14" font-weight="bold">Kitchen Renovation - 123 Main St</text>
<text x="940" y="978" class="label" font-size="10">123 Main Street, Anytown, ST 12345</text>
<text x="940" y="994" class="label" font-size="10">Jane Smith</text>
<text x="940" y="1033" class="label" font-size="9">Sheet: A1</text>
<text x="1065" y="1033" class="label" font-size="9">Date: 2026-02-11</text>
<text x="940" y="1048" class="label" font-size="9">Scale: 1/4in = 1ft</text>
<text x="940" y="1058" class="label" font-size="8" fill="#666">Drawn by: FloorScript v0.1</text>
</g>
</g>
</svg>