<svg xmlns="http://www.w3.org/2000/svg" viewBox="0 0 1200 1051.43" width="1200" height="1051.43">
<style>
  .wall-exterior { fill: #000; stroke: none; }
  .wall-interior { fill: #333; stroke: none; }
  .wall-load-bearing { fill: #333; stroke: none; }
  .opening line, .opening path { stroke: #000; stroke-width: 0.35mm; fill: none; }
  .dimension line { stroke: #555; stroke-width: 0.18mm; }
  .label { font-family: 'Helvetica', 'Arial', sans-serif; fill: #000; }
  .title-block .label { font-family: 'Helvetica', 'Arial', sans-serif; fill: #000; }
</style>
<rect x="0" y="0" width="1200" height="1051.43" fill="white"/>
<g class="layer-structural">
<g class="room" id="room-living">
<g class="walls">
<rect x="137.14" y="137.14" width="514.29" height="17.14" class="wall-exterior"/>
<rect x="137.14" y="531.43" width="514.29" height="17.14" class="wall-exterior"/>
<rect x="638.57" y="137.14" width="12.86" height="411.43" class="wall-interior"/>
<g class="wall-exterior">
<rect x="137.14" y="411.43" width="17.14" height="137.14"/>
<rect x="137.14" y="137.14" width="17.14" height="171.43"/>
</g>
</g>
</g>
<g class="opening door">
<line x1="137.14" y1="308.57" x2="240" y2="308.57"/>
<path d="M 240,308.57 A 102.86,102.86 0 0,1 137.14,411.43" fill="none"/>
</g>
<g class="room" id="room-kitchen">
<g class="walls">
<rect x="651.43" y="137.14" width="411.43" height="17.14" class="wall-exterior"/>
<rect x="651.43" y="467.14" width="411.43" height="12.86" class="wall-interior"/>
<g class="wall-exterior">
<rect x="1045.71" y="377.14" width="17.14" height="102.86"/>
<rect x="1045.71" y="137.14" width="17.14" height="102.86"/>
</g>
<g class="wall-interior">
<rect x="651.43" y="445.71" width="12.86" height="34.29"/>
<rect x="651.43" y="137.14" width="12.86" height="102.86"/>
</g>
</g>
</g>
<g class="opening window">
<line x1="1050" y1="377.14" x2="1050" y2="240"/>
<line x1="1058.57" y1="377.14" x2="1058.57" y2="240"/>
</g>
<g class="opening cased-opening">
<line x1="645" y1="445.71" x2="657.86" y2="445.71"/>
<line x1="645" y1="240" x2="657.86" y2="240"/>
</g>
<g class="room" id="room-hallway">
<g class="walls">
<rect x="651.43" y="480" width="342.86" height="12.86" class="wall-interior"/>
<rect x="651.43" y="570" width="342.86" height="12.86" class="wall-interior"/>
<rect x="981.43" y="480" width="12.86" height="102.86" class="wall-interior"/>
<rect x="651.43" y="480" width="12.86" height="102.86" class="wall-interior"/>
</g>
</g>
<g class="room" id="room-bathroom">
<g class="walls">
<g class="wall-interior">
<rect x="137.14" y="548.57" width="68.57" height="12.86"/>
<rect x="291.43" y="548.57" width="120" height="12.86"/>
</g>
<g class="wall-exterior">
<rect x="137.14" y="737.14" width="68.57" height="17.14"/>
<rect x="308.57" y="737.14" width="102.86" height="17.14"/>
</g>
<rect x="398.57" y="548.57" width="12.86" height="205.71" class="wall-interior"/>
<rect x="137.14" y="548.57" width="17.14" height="205.71" class="wall-exterior"/>
</g>
</g>
<g class="opening door">
<line x1="205.71" y1="561.43" x2="205.71" y2="647.14"/>
<path d="M 205.71,647.14 A 85.71,85.71 0 0,1 291.43,561.43" fill="none"/>
</g>
<g class="opening window">
<line x1="205.71" y1="741.43" x2="308.57" y2="741.43"/>
<line x1="205.71" y1="750" x2="308.57" y2="750"/>
</g>
</g>
<g class="layer-labels">
<text x="394.29" y="342.86" class="label" font-size="17.14" font-weight="500" text-anchor="middle" dominant-baseline="central">Living Room</text>
<text x="857.14" y="308.57" class="label" font-size="17.14" font-weight="500" text-anchor="middle" dominant-baseline="central">Kitchen</text>
<text x="822.86" y="531.43" class="label" font-size="17.14" font-weight="500" text-anchor="middle" dominant-baseline="central">Hallway</text>
<text x="274.29" y="651.43" class="label" font-size="17.14" font-weight="500" text-anchor="middle" dominant-baseline="central">Bathroom</text>
</g>
<g class="layer-dimensions">
<g class="dimension">
<line x1="137.14" y1="617.14" x2="651.43" y2="617.14"/>
<line x1="132" y1="622.29" x2="142.29" y2="612"/>
<line x1="646.29" y1="622.29" x2="656.57" y2="612"/>
<text x="394.29" y="608.57" class="label" font-size="12" text-anchor="middle">15&apos;-0&quot;</text>
</g>
<g class="dimension">
<line x1="68.57" y1="548.57" x2="68.57" y2="137.14"/>
<line x1="63.43" y1="553.71" x2="73.71" y2="543.43"/>
<line x1="63.43" y1="142.29" x2="73.71" y2="132"/>
<text x="60" y="342.86" class="label" font-size="12" text-anchor="middle" transform="rotate(-90, 60, 342.86)">12&apos;-0&quot;</text>
</g>
<g class="dimension">
<line x1="651.43" y1="548.57" x2="1062.86" y2="548.57"/>
<line x1="646.29" y1="553.71" x2="656.57" y2="543.43"/>
<line x1="1057.71" y1="553.71" x2="1068" y2="543.43"/>
<text x="857.14" y="540" class="label" font-size="12" text-anchor="middle">12&apos;-0&quot;</text>
</g>
<g class="dimension">
<line x1="582.86" y1="480" x2="582.86" y2="137.14"/>
<line x1="577.71" y1="485.14" x2="588" y2="474.86"/>
<line x1="577.71" y1="142.29" x2="588" y2="132"/>
<text x="574.29" y="308.57" class="label" font-size="12" text-anchor="middle" transform="rotate(-90, 574.29, 308.57)">10&apos;-0&quot;</text>
</g>
<g class="dimension">
<line x1="651.43" y1="651.43" x2="994.29" y2="651.43"/>
<line x1="646.29" y1="656.57" x2="656.57" y2="646.29"/>
<line x1="989.14" y1="656.57" x2="999.43" y2="646.29"/>
<text x="822.86" y="642.86" class="label" font-size="12" text-anchor="middle">10&apos;-0&quot;</text>
</g>
<g class="dimension">
<line x1="582.86" y1="582.86" x2="582.86" y2="480"/>
<line x1="577.71" y1="588" x2="588" y2="577.71"/>
<line x1="577.71" y1="485.14" x2="588" y2="474.86"/>
<text x="574.29" y="531.43" class="label" font-size="12" text-anchor="middle" transform="rotate(-90, 574.29, 531.43)">3&apos;-0&quot;</text>
</g>
<g class="dimension">
<line x1="137.14" y1="822.86" x2="411.43" y2="822.86"/>
<line x1="132" y1="828" x2="142.29" y2="817.71"/>
<line x1="406.29" y1="828" x2="416.57" y2="817.71"/>
<text x="274.29" y="814.29" class="label" font-size="12" text-anchor="middle">8&apos;-0&quot;</text>
</g>
<g class="dimension">
<line x1="68.57" y1="754.29" x2="68.57" y2="548.57"/>
<line x1="63.43" y1="759.43" x2="73.71" y2="749.14"/>
<line x1="63.43" y1="553.71" x2="73.71" y2="543.43"/>
<text x="60" y="651.43" class="label" font-size="12" text-anchor="middle" transform="rotate(-90, 60, 651.43)">6&apos;-0&quot;</text>
</g>
</g>
<g class="layer-title-block">
<g class="title-block">
<rect x="830" y="891.43" width="350" height="140" fill="white" stroke="#000" stroke-width="0.5"/>
<line x1="830" y1="981.43" x2="1180" y2="981.43" stroke="#000" stroke-width="0.35"/>
<text x="842" y="915.43" class="label" font-size="18" font-weight="bold">Multi-Room Floor Plan</text>
<text x="842" y="937.43" class="label" font-size="13">456 Oak Avenue, Anytown, ST 12345</text>
<text x="842" y="957.43" class="label" font-size="13">John Doe</text>
<text x="842" y="1001.43" class="label" font-size="12">Sheet: A1</text>
<text x="1015" y="1001.43" class="label" font-size="12">Date: 2026-02-11</text>
<text x="842" y="1019.43" class="label" font-size="12">Scale: 1/4in = 1ft</text>
<text x="1015" y="1019.43" class="label" font-size="10" fill="#666">FloorScript v0.1</text>
</g>
</g>
</svg>