<svg xmlns="http://www.w3.org/2000/svg" viewBox="0 0 1200 1411.63" width="1200" height="1411.63">
<rect x="0" y="0" width="1200" height="1411.63" fill="white"/>
<g class="layer-structural">
<g class="walls">
<g fill="#333" stroke="none">
<rect x="733.95" y="813.49" width="12.56" height="133.95"/>
<rect x="733.95" y="478.6" width="12.56" height="133.95"/>
</g>
<g fill="#333" stroke="none">
<rect x="533.02" y="466.05" width="33.49" height="12.56"/>
<rect x="700.47" y="466.05" width="33.49" height="12.56"/>
</g>
<rect x="131.16" y="466.05" width="389.3" height="12.56" stroke="none" fill="#333"/>
<g fill="#333" stroke="none">
<rect x="131.16" y="947.44" width="33.49" height="18.14"/>
<rect x="248.37" y="947.44" width="83.72" height="18.14"/>
<rect x="432.56" y="947.44" width="66.98" height="18.14"/>
</g>
<rect x="746.51" y="466.05" width="334.88" height="12.56" stroke="none" fill="#333"/>
<rect x="520.47" y="365.58" width="12.56" height="16.74" stroke="none" fill="#333"/>
<g fill="#333" stroke="none">
<rect x="533.02" y="353.02" width="33.49" height="12.56"/>
<rect x="650.23" y="353.02" width="83.72" height="12.56"/>
</g>
<rect x="733.95" y="365.58" width="12.56" height="16.74" stroke="none" fill="#333"/>
<rect x="520.47" y="131.16" width="12.56" height="251.16" stroke="none" fill="#333"/>
<rect x="733.95" y="131.16" width="12.56" height="251.16" stroke="none" fill="#333"/>
<rect x="520.47" y="466.05" width="12.56" height="12.56" stroke="none" fill="#333"/>
<g fill="#000" stroke="none">
<rect x="298.6" y="947.44" width="33.49" height="18.14"/>
<rect x="432.56" y="947.44" width="66.98" height="18.14"/>
<rect x="633.49" y="947.44" width="100.47" height="18.14"/>
</g>
<rect x="118.6" y="466.05" width="12.56" height="12.56" stroke="none" fill="#333"/>
<rect x="520.47" y="353.02" width="12.56" height="12.56" stroke="none" fill="#333"/>
<rect x="733.95" y="118.6" width="12.56" height="12.56" stroke="none" fill="#333"/>
<rect x="520.47" y="118.6" width="12.56" height="12.56" stroke="none" fill="#333"/>
<rect x="733.95" y="353.02" width="12.56" height="12.56" stroke="none" fill="#333"/>
<g fill="#000" stroke="none">
<rect x="113.02" y="813.49" width="18.14" height="143.02"/>
<rect x="113.02" y="466.05" width="18.14" height="180"/>
</g>
<g fill="#000" stroke="none">
<rect x="733.95" y="947.44" width="113.02" height="18.14"/>
<rect x="980.93" y="947.44" width="118.6" height="18.14"/>
</g>
<g fill="#000" stroke="none">
<rect x="1081.4" y="813.49" width="18.14" height="152.09"/>
<rect x="1081.4" y="466.05" width="18.14" height="180"/>
</g>
<g fill="#000" stroke="none">
<rect x="100.47" y="113.02" width="219.07" height="18.14"/>
<rect x="453.49" y="113.02" width="79.53" height="18.14"/>
</g>
<g fill="#000" stroke="none">
<rect x="100.47" y="449.3" width="18.14" height="29.3"/>
<rect x="100.47" y="131.16" width="18.14" height="217.67"/>
</g>
<rect x="520.47" y="100.47" width="226.05" height="18.14" stroke="none" fill="#000"/>
<g fill="#000" stroke="none">
<rect x="733.95" y="113.02" width="46.05" height="18.14"/>
<rect x="913.95" y="113.02" width="185.58" height="18.14"/>
</g>
<g fill="#000" stroke="none">
<rect x="1081.4" y="432.56" width="18.14" height="46.05"/>
<rect x="1081.4" y="131.16" width="18.14" height="200.93"/>
</g>
<rect x="113.02" y="1133.02" width="198.14" height="18.14" stroke="none" fill="#000"/>
<rect x="298.6" y="956.51" width="12.56" height="176.51" stroke="none" fill="#333"/>
<rect x="113.02" y="947.44" width="18.14" height="185.58" stroke="none" fill="#000"/>
</g>
<g class="opening cased-opening" stroke="#000" stroke-width="0.35mm" fill="none">
<line x1="733.95" y1="813.49" x2="746.51" y2="813.49"/>
<line x1="733.95" y1="813.49" x2="733.95" y2="832.33"/>
<line x1="746.51" y1="813.49" x2="746.51" y2="832.33"/>
<line x1="733.95" y1="612.56" x2="746.51" y2="612.56"/>
<line x1="733.95" y1="612.56" x2="733.95" y2="593.72"/>
<line x1="746.51" y1="612.56" x2="746.51" y2="593.72"/>
</g>
<g class="opening cased-opening" stroke="#000" stroke-width="0.35mm" fill="none">
<line x1="566.51" y1="466.05" x2="566.51" y2="478.6"/>
<line x1="566.51" y1="466.05" x2="547.67" y2="466.05"/>
<line x1="566.51" y1="478.6" x2="547.67" y2="478.6"/>
<line x1="700.47" y1="466.05" x2="700.47" y2="478.6"/>
<line x1="700.47" y1="466.05" x2="719.3" y2="466.05"/>
<line x1="700.47" y1="478.6" x2="719.3" y2="478.6"/>
</g>
<g class="opening door" stroke="#000" stroke-width="0.35mm" fill="none">
<line x1="432.56" y1="965.58" x2="432.56" y2="865.12"/>
<path d="M 432.56,865.12 A 100.47,100.47 0 0,0 332.09,965.58"/>
</g>
<g class="opening window" stroke="#000" stroke-width="0.35mm" fill="none">
<line x1="499.53" y1="951.98" x2="633.49" y2="951.98"/>
<line x1="499.53" y1="961.05" x2="633.49" y2="961.05"/>
</g>
<g class="opening door" stroke="#000" stroke-width="0.35mm" fill="none">
<line x1="164.65" y1="965.58" x2="164.65" y2="1049.3"/>
<path d="M 164.65,1049.3 A 83.72,83.72 0 0,0 248.37,965.58"/>
</g>
<g class="opening door" stroke="#000" stroke-width="0.35mm" fill="none">
<line x1="520.47" y1="466.05" x2="436.74" y2="466.05"/>
<path d="M 436.74,466.05 A 83.72,83.72 0 0,1 520.47,382.33"/>
</g>
<g class="opening door" stroke="#000" stroke-width="0.35mm" fill="none">
<line x1="566.51" y1="365.58" x2="566.51" y2="281.86"/>
<path d="M 566.51,281.86 A 83.72,83.72 0 0,1 650.23,365.58"/>
</g>
<g class="opening door" stroke="#000" stroke-width="0.35mm" fill="none">
<line x1="733.95" y1="466.05" x2="817.67" y2="466.05"/>
<path d="M 817.67,466.05 A 83.72,83.72 0 0,0 733.95,382.33"/>
</g>
<g class="opening door" stroke="#000" stroke-width="0.35mm" fill="none">
<line x1="520.47" y1="466.05" x2="436.74" y2="466.05"/>
<path d="M 436.74,466.05 A 83.72,83.72 0 0,1 520.47,382.33"/>
</g>
<g class="opening door" stroke="#000" stroke-width="0.35mm" fill="none">
<line x1="733.95" y1="466.05" x2="817.67" y2="466.05"/>
<path d="M 817.67,466.05 A 83.72,83.72 0 0,0 733.95,382.33"/>
</g>
<g class="opening door" stroke="#000" stroke-width="0.35mm" fill="none">
<line x1="432.56" y1="965.58" x2="432.56" y2="865.12"/>
<path d="M 432.56,865.12 A 100.47,100.47 0 0,0 332.09,965.58"/>
</g>
<g class="opening window" stroke="#000" stroke-width="0.35mm" fill="none">
<line x1="499.53" y1="951.98" x2="633.49" y2="951.98"/>
<line x1="499.53" y1="961.05" x2="633.49" y2="961.05"/>
</g>
<g class="opening window" stroke="#000" stroke-width="0.35mm" fill="none">
<line x1="117.56" y1="813.49" x2="117.56" y2="646.05"/>
<line x1="126.63" y1="813.49" x2="126.63" y2="646.05"/>
</g>
<g class="opening window" stroke="#000" stroke-width="0.35mm" fill="none">
<line x1="846.98" y1="951.98" x2="980.93" y2="951.98"/>
<line x1="846.98" y1="961.05" x2="980.93" y2="961.05"/>
</g>
<g class="opening window" stroke="#000" stroke-width="0.35mm" fill="none">
<line x1="319.53" y1="117.56" x2="453.49" y2="117.56"/>
<line x1="319.53" y1="126.63" x2="453.49" y2="126.63"/>
</g>
<g class="opening window" stroke="#000" stroke-width="0.35mm" fill="none">
<line x1="105" y1="449.3" x2="105" y2="348.84"/>
<line x1="114.07" y1="449.3" x2="114.07" y2="348.84"/>
</g>
<g class="opening window" stroke="#000" stroke-width="0.35mm" fill="none">
<line x1="780" y1="117.56" x2="913.95" y2="117.56"/>
<line x1="780" y1="126.63" x2="913.95" y2="126.63"/>
</g>
<g class="opening window" stroke="#000" stroke-width="0.35mm" fill="none">
<line x1="1085.93" y1="432.56" x2="1085.93" y2="332.09"/>
<line x1="1095" y1="432.56" x2="1095" y2="332.09"/>
</g>
<g class="extension-walls" id="extension-bay-window">
<rect x="1081.4" y="627.91" width="83.72" height="18.14" stroke="none" fill="#000"/>
<rect x="1081.4" y="813.49" width="83.72" height="18.14" stroke="none" fill="#000"/>
<g fill="#000" stroke="none">
<rect x="1165.12" y="796.74" width="18.14" height="34.88"/>
<rect x="1165.12" y="627.91" width="18.14" height="34.88"/>
</g>
</g>
<g class="opening window" stroke="#000" stroke-width="0.35mm" fill="none">
<line x1="1169.65" y1="796.74" x2="1169.65" y2="662.79"/>
<line x1="1178.72" y1="796.74" x2="1178.72" y2="662.79"/>
</g>
<g class="enclosure-walls" id="enclosure-closet1">
<g fill="#333" stroke="none">
<rect x="240" y="248.37" width="12.56" height="83.72"/>
<rect x="240" y="131.16" width="12.56" height="33.49"/>
</g>
<rect x="118.6" y="319.53" width="133.95" height="12.56" stroke="none" fill="#333"/>
</g>
<g class="opening door" stroke="#000" stroke-width="0.35mm" fill="none">
<line x1="240" y1="248.37" x2="156.28" y2="248.37"/>
<path d="M 156.28,248.37 A 83.72,83.72 0 0,1 240,164.65"/>
</g>
<g class="enclosure-walls" id="enclosure-closet2">
<g fill="#333" stroke="none">
<rect x="964.19" y="248.37" width="12.56" height="50.23"/>
<rect x="964.19" y="131.16" width="12.56" height="16.74"/>
</g>
<rect x="964.19" y="286.05" width="117.21" height="12.56" stroke="none" fill="#333"/>
</g>
<g class="opening door" stroke="#000" stroke-width="0.35mm" fill="none">
<line x1="964.19" y1="147.91" x2="1064.65" y2="147.91"/>
<path d="M 1064.65,147.91 A 100.47,100.47 0 0,1 964.19,248.37"/>
</g>
</g>
<g class="layer-labels">
<text x="432.56" y="713.02" fill="#000" font-family="'Helvetica','Arial',sans-serif" font-size="16.74" font-weight="500" text-anchor="middle" dominant-baseline="central">Living Room</text>
<text x="913.95" y="713.02" fill="#000" font-family="'Helvetica','Arial',sans-serif" font-size="16.74" font-weight="500" text-anchor="middle" dominant-baseline="central">Kitchen</text>
<text x="1123.26" y="729.77" fill="#000" font-family="'Helvetica','Arial',sans-serif" font-size="16.74" font-weight="500" text-anchor="middle" dominant-baseline="central">Bay Window</text>
<text x="633.49" y="415.81" fill="#000" font-family="'Helvetica','Arial',sans-serif" font-size="16.74" font-weight="500" text-anchor="middle" dominant-baseline="central">Hall</text>
<text x="319.53" y="298.6" fill="#000" font-family="'Helvetica','Arial',sans-serif" font-size="16.74" font-weight="500" text-anchor="middle" dominant-baseline="central">Bedroom 1</text>
<text x="185.58" y="231.63" fill="#000" font-family="'Helvetica','Arial',sans-serif" font-size="16.74" font-weight="500" text-anchor="middle" dominant-baseline="central">Walk-in Closet</text>
<text x="633.49" y="235.81" fill="#000" font-family="'Helvetica','Arial',sans-serif" font-size="16.74" font-weight="500" text-anchor="middle" dominant-baseline="central">Full Bath</text>
<text x="913.95" y="298.6" fill="#000" font-family="'Helvetica','Arial',sans-serif" font-size="16.74" font-weight="500" text-anchor="middle" dominant-baseline="central">Bedroom 2</text>
<text x="1022.79" y="214.88" fill="#000" font-family="'Helvetica','Arial',sans-serif" font-size="16.74" font-weight="500" text-anchor="middle" dominant-baseline="central">Closet</text>
<text x="214.88" y="1049.3" fill="#000" font-family="'Helvetica','Arial',sans-serif" font-size="16.74" font-weight="500" text-anchor="middle" dominant-baseline="central">Half Bath</text>
</g>
<g class="layer-dimensions">
<g class="dimension" stroke="#555" stroke-width="0.18mm">
<line x1="131.16" y1="411.63" x2="733.95" y2="411.63"/>
<line x1="126.14" y1="416.65" x2="136.19" y2="406.6"/>
<line x1="728.93" y1="416.65" x2="738.98" y2="406.6"/>
<text x="432.56" y="403.26" stroke="none" fill="#000" font-family="'Helvetica','Arial',sans-serif" font-size="11.72" text-anchor="middle">18&apos;-0&quot;</text>
</g>
<g class="dimension" stroke="#555" stroke-width="0.18mm">
<line x1="64.19" y1="947.44" x2="64.19" y2="478.6"/>
<line x1="59.16" y1="952.47" x2="69.21" y2="942.42"/>
<line x1="59.16" y1="483.63" x2="69.21" y2="473.58"/>
<text x="55.81" y="713.02" stroke="none" fill="#000" font-family="'Helvetica','Arial',sans-serif" font-size="11.72" text-anchor="middle" transform="rotate(-90, 55.81, 713.02)">14&apos;-0&quot;</text>
</g>
<g class="dimension" stroke="#555" stroke-width="0.18mm">
<line x1="746.51" y1="1014.42" x2="1081.4" y2="1014.42"/>
<line x1="741.49" y1="1019.44" x2="751.53" y2="1009.4"/>
<line x1="1076.37" y1="1019.44" x2="1086.42" y2="1009.4"/>
<text x="913.95" y="1006.05" stroke="none" fill="#000" font-family="'Helvetica','Arial',sans-serif" font-size="11.72" text-anchor="middle">10&apos;-0&quot;</text>
</g>
<g class="dimension" stroke="#555" stroke-width="0.18mm">
<line x1="1148.37" y1="947.44" x2="1148.37" y2="478.6"/>
<line x1="1143.35" y1="952.47" x2="1153.4" y2="942.42"/>
<line x1="1143.35" y1="483.63" x2="1153.4" y2="473.58"/>
<text x="1140" y="713.02" stroke="none" fill="#000" font-family="'Helvetica','Arial',sans-serif" font-size="11.72" text-anchor="middle" transform="rotate(-90, 1140, 713.02)">14&apos;-0&quot;</text>
</g>
<g class="dimension" stroke="#555" stroke-width="0.18mm">
<line x1="533.02" y1="298.6" x2="733.95" y2="298.6"/>
<line x1="528" y1="303.63" x2="538.05" y2="293.58"/>
<line x1="728.93" y1="303.63" x2="738.98" y2="293.58"/>
<text x="633.49" y="290.23" stroke="none" fill="#000" font-family="'Helvetica','Arial',sans-serif" font-size="11.72" text-anchor="middle">6&apos;-0&quot;</text>
</g>
<g class="dimension" stroke="#555" stroke-width="0.18mm">
<line x1="800.93" y1="466.05" x2="800.93" y2="365.58"/>
<line x1="795.91" y1="471.07" x2="805.95" y2="461.02"/>
<line x1="795.91" y1="370.6" x2="805.95" y2="360.56"/>
<text x="792.56" y="415.81" stroke="none" fill="#000" font-family="'Helvetica','Arial',sans-serif" font-size="11.72" text-anchor="middle" transform="rotate(-90, 792.56, 415.81)">3&apos;-0&quot;</text>
</g>
<g class="dimension" stroke="#555" stroke-width="0.18mm">
<line x1="118.6" y1="64.19" x2="520.47" y2="64.19"/>
<line x1="113.58" y1="69.21" x2="123.63" y2="59.16"/>
<line x1="515.44" y1="69.21" x2="525.49" y2="59.16"/>
<text x="319.53" y="55.81" stroke="none" fill="#000" font-family="'Helvetica','Arial',sans-serif" font-size="11.72" text-anchor="middle">12&apos;-0&quot;</text>
</g>
<g class="dimension" stroke="#555" stroke-width="0.18mm">
<line x1="51.63" y1="466.05" x2="51.63" y2="131.16"/>
<line x1="46.6" y1="471.07" x2="56.65" y2="461.02"/>
<line x1="46.6" y1="136.19" x2="56.65" y2="126.14"/>
<text x="43.26" y="298.6" stroke="none" fill="#000" font-family="'Helvetica','Arial',sans-serif" font-size="11.72" text-anchor="middle" transform="rotate(-90, 43.26, 298.6)">10&apos;-0&quot;</text>
</g>
<g class="dimension" stroke="#555" stroke-width="0.18mm">
<line x1="533.02" y1="51.63" x2="733.95" y2="51.63"/>
<line x1="528" y1="56.65" x2="538.05" y2="46.6"/>
<line x1="728.93" y1="56.65" x2="738.98" y2="46.6"/>
<text x="633.49" y="43.26" stroke="none" fill="#000" font-family="'Helvetica','Arial',sans-serif" font-size="11.72" text-anchor="middle">6&apos;-0&quot;</text>
</g>
<g class="dimension" stroke="#555" stroke-width="0.18mm">
<line x1="800.93" y1="353.02" x2="800.93" y2="118.6"/>
<line x1="795.91" y1="358.05" x2="805.95" y2="348"/>
<line x1="795.91" y1="123.63" x2="805.95" y2="113.58"/>
<text x="792.56" y="235.81" stroke="none" fill="#000" font-family="'Helvetica','Arial',sans-serif" font-size="11.72" text-anchor="middle" transform="rotate(-90, 792.56, 235.81)">7&apos;-0&quot;</text>
</g>
<g class="dimension" stroke="#555" stroke-width="0.18mm">
<line x1="746.51" y1="64.19" x2="1081.4" y2="64.19"/>
<line x1="741.49" y1="69.21" x2="751.53" y2="59.16"/>
<line x1="1076.37" y1="69.21" x2="1086.42" y2="59.16"/>
<text x="913.95" y="55.81" stroke="none" fill="#000" font-family="'Helvetica','Arial',sans-serif" font-size="11.72" text-anchor="middle">10&apos;-0&quot;</text>
</g>
<g class="dimension" stroke="#555" stroke-width="0.18mm">
<line x1="1148.37" y1="466.05" x2="1148.37" y2="131.16"/>
<line x1="1143.35" y1="471.07" x2="1153.4" y2="461.02"/>
<line x1="1143.35" y1="136.19" x2="1153.4" y2="126.14"/>
<text x="1140" y="298.6" stroke="none" fill="#000" font-family="'Helvetica','Arial',sans-serif" font-size="11.72" text-anchor="middle" transform="rotate(-90, 1140, 298.6)">10&apos;-0&quot;</text>
</g>
<g class="dimension" stroke="#555" stroke-width="0.18mm">
<line x1="131.16" y1="1200" x2="298.6" y2="1200"/>
<line x1="126.14" y1="1205.02" x2="136.19" y2="1194.98"/>
<line x1="293.58" y1="1205.02" x2="303.63" y2="1194.98"/>
<text x="214.88" y="1191.63" stroke="none" fill="#000" font-family="'Helvetica','Arial',sans-serif" font-size="11.72" text-anchor="middle">5&apos;-0&quot;</text>
</g>
<g class="dimension" stroke="#555" stroke-width="0.18mm">
<line x1="64.19" y1="1133.02" x2="64.19" y2="965.58"/>
<line x1="59.16" y1="1138.05" x2="69.21" y2="1128"/>
<line x1="59.16" y1="970.6" x2="69.21" y2="960.56"/>
<text x="55.81" y="1049.3" stroke="none" fill="#000" font-family="'Helvetica','Arial',sans-serif" font-size="11.72" text-anchor="middle" transform="rotate(-90, 55.81, 1049.3)">5&apos;-0&quot;</text>
</g>
</g>
<g class="layer-electrical">
<g class="electrical">
<g class="electrical-panel">
<rect x="750.7" y="888.84" width="33.49" height="50.23" stroke="#000" stroke-width="0.4mm" fill="#fff"/>
<text x="767.44" y="906.42" fill="#000" font-family="sans-serif" font-size="7.37" font-weight="bold" text-anchor="middle" dominant-baseline="central">PANEL</text>
<text x="767.44" y="924" fill="#000" font-family="sans-serif" font-size="6.03" text-anchor="middle" dominant-baseline="central">200A</text>
<text x="767.44" y="944.09" fill="#666" font-family="sans-serif" font-size="5.36" text-anchor="middle" dominant-baseline="hanging">Main Panel</text>
</g>
<polyline points="767.44,913.95 432.56,913.95 432.56,713.02" stroke="#333" stroke-width="0.25mm" fill="none"/>
<polyline points="767.44,913.95 901.4,913.95 901.4,713.02" stroke="#333" stroke-width="0.25mm" fill="none"/>
<g class="outlet outlet-duplex">
<circle cx="466.05" cy="956.51" r="11.72" stroke="#000" stroke-width="0.3mm" fill="#fff"/>
<line x1="457.84" y1="952.41" x2="474.25" y2="952.41" stroke="#000" stroke-width="0.3mm" fill="none"/>
<line x1="457.84" y1="960.61" x2="474.25" y2="960.61" stroke="#000" stroke-width="0.3mm" fill="none"/>
</g>
<g class="outlet outlet-duplex">
<circle cx="122.09" cy="646.05" r="11.72" stroke="#000" stroke-width="0.3mm" fill="#fff"/>
<line x1="113.89" y1="641.94" x2="130.3" y2="641.94" stroke="#000" stroke-width="0.3mm" fill="none"/>
<line x1="113.89" y1="650.15" x2="130.3" y2="650.15" stroke="#000" stroke-width="0.3mm" fill="none"/>
</g>
<g class="outlet outlet-gfci">
<circle cx="846.98" cy="956.51" r="11.72" stroke="#000" stroke-width="0.3mm" fill="#fff"/>
<text x="846.98" y="973.26" fill="#000" font-size="8.2" text-anchor="middle" dominant-baseline="hanging">GFI</text>
</g>
<g class="outlet outlet-gfci">
<circle cx="913.95" cy="472.33" r="11.72" stroke="#000" stroke-width="0.3mm" fill="#fff"/>
<text x="913.95" y="489.07" fill="#000" font-size="8.2" text-anchor="middle" dominant-baseline="hanging">GFI</text>
</g>
<g class="outlet outlet-duplex">
<circle cx="319.53" cy="122.09" r="11.72" stroke="#000" stroke-width="0.3mm" fill="#fff"/>
<line x1="311.33" y1="117.99" x2="327.74" y2="117.99" stroke="#000" stroke-width="0.3mm" fill="none"/>
<line x1="311.33" y1="126.2" x2="327.74" y2="126.2" stroke="#000" stroke-width="0.3mm" fill="none"/>
</g>
<g class="outlet outlet-duplex">
<circle cx="109.53" cy="399.07" r="11.72" stroke="#000" stroke-width="0.3mm" fill="#fff"/>
<line x1="101.33" y1="394.97" x2="117.74" y2="394.97" stroke="#000" stroke-width="0.3mm" fill="none"/>
<line x1="101.33" y1="403.17" x2="117.74" y2="403.17" stroke="#000" stroke-width="0.3mm" fill="none"/>
</g>
<g class="outlet outlet-duplex">
<circle cx="913.95" cy="122.09" r="11.72" stroke="#000" stroke-width="0.3mm" fill="#fff"/>
<line x1="905.75" y1="117.99" x2="922.16" y2="117.99" stroke="#000" stroke-width="0.3mm" fill="none"/>
<line x1="905.75" y1="126.2" x2="922.16" y2="126.2" stroke="#000" stroke-width="0.3mm" fill="none"/>
</g>
<g class="outlet outlet-duplex">
<circle cx="1090.47" cy="365.58" r="11.72" stroke="#000" stroke-width="0.3mm" fill="#fff"/>
<line x1="1082.26" y1="361.48" x2="1098.67" y2="361.48" stroke="#000" stroke-width="0.3mm" fill="none"/>
<line x1="1082.26" y1="369.68" x2="1098.67" y2="369.68" stroke="#000" stroke-width="0.3mm" fill="none"/>
</g>
<g class="outlet outlet-gfci">
<circle cx="740.23" cy="252.56" r="11.72" stroke="#000" stroke-width="0.3mm" fill="#fff"/>
<text x="740.23" y="269.3" fill="#000" font-size="8.2" text-anchor="middle" dominant-baseline="hanging">GFI</text>
</g>
<g class="outlet outlet-gfci">
<circle cx="304.88" cy="1066.05" r="11.72" stroke="#000" stroke-width="0.3mm" fill="#fff"/>
<text x="304.88" y="1082.79" fill="#000" font-size="8.2" text-anchor="middle" dominant-baseline="hanging">GFI</text>
</g>
<g class="switch switch-single">
<circle cx="265.12" cy="956.51" r="11.72" stroke="#000" stroke-width="0.3mm" fill="#fff"/>
<text x="265.12" y="956.51" fill="#000" font-family="sans-serif" font-size="12.89" font-weight="bold" text-anchor="middle" dominant-baseline="central">S</text>
</g>
<g class="switch switch-single">
<circle cx="740.23" cy="880.47" r="11.72" stroke="#000" stroke-width="0.3mm" fill="#fff"/>
<text x="740.23" y="880.47" fill="#000" font-family="sans-serif" font-size="12.89" font-weight="bold" text-anchor="middle" dominant-baseline="central">S</text>
</g>
<g class="switch switch-single">
<circle cx="486.98" cy="472.33" r="11.72" stroke="#000" stroke-width="0.3mm" fill="#fff"/>
<text x="486.98" y="472.33" fill="#000" font-family="sans-serif" font-size="12.89" font-weight="bold" text-anchor="middle" dominant-baseline="central">S</text>
</g>
<g class="switch switch-single">
<circle cx="780" cy="472.33" r="11.72" stroke="#000" stroke-width="0.3mm" fill="#fff"/>
<text x="780" y="472.33" fill="#000" font-family="sans-serif" font-size="12.89" font-weight="bold" text-anchor="middle" dominant-baseline="central">S</text>
</g>
<g class="switch switch-single">
<circle cx="683.72" cy="359.3" r="11.72" stroke="#000" stroke-width="0.3mm" fill="#fff"/>
<text x="683.72" y="359.3" fill="#000" font-family="sans-serif" font-size="12.89" font-weight="bold" text-anchor="middle" dominant-baseline="central">S</text>
</g>
<g class="light-fixture light-recessed">
<rect x="418.49" y="698.96" width="28.13" height="28.13" stroke="#000" stroke-width="0.3mm" fill="none"/>
<circle cx="432.56" cy="713.02" r="8.2" stroke="#000" stroke-width="0.3mm" fill="none"/>
</g>
<g class="light-fixture light-surface">
<circle cx="901.4" cy="713.02" r="11.72" stroke="#000" stroke-width="0.3mm" fill="none"/>
<line x1="888.96" y1="700.59" x2="893.11" y2="704.74" stroke="#000" stroke-width="0.3mm" fill="none"/>
<line x1="913.83" y1="700.59" x2="909.68" y2="704.74" stroke="#000" stroke-width="0.3mm" fill="none"/>
<line x1="888.96" y1="725.46" x2="893.11" y2="721.31" stroke="#000" stroke-width="0.3mm" fill="none"/>
<line x1="913.83" y1="725.46" x2="909.68" y2="721.31" stroke="#000" stroke-width="0.3mm" fill="none"/>
</g>
<g class="light-fixture light-surface">
<circle cx="332.09" cy="311.16" r="11.72" stroke="#000" stroke-width="0.3mm" fill="none"/>
<line x1="319.66" y1="298.73" x2="323.81" y2="302.87" stroke="#000" stroke-width="0.3mm" fill="none"/>
<line x1="344.52" y1="298.73" x2="340.38" y2="302.87" stroke="#000" stroke-width="0.3mm" fill="none"/>
<line x1="319.66" y1="323.59" x2="323.81" y2="319.45" stroke="#000" stroke-width="0.3mm" fill="none"/>
<line x1="344.52" y1="323.59" x2="340.38" y2="319.45" stroke="#000" stroke-width="0.3mm" fill="none"/>
</g>
<g class="light-fixture light-surface">
<circle cx="901.4" cy="311.16" r="11.72" stroke="#000" stroke-width="0.3mm" fill="none"/>
<line x1="888.96" y1="298.73" x2="893.11" y2="302.87" stroke="#000" stroke-width="0.3mm" fill="none"/>
<line x1="913.83" y1="298.73" x2="909.68" y2="302.87" stroke="#000" stroke-width="0.3mm" fill="none"/>
<line x1="888.96" y1="323.59" x2="893.11" y2="319.45" stroke="#000" stroke-width="0.3mm" fill="none"/>
<line x1="913.83" y1="323.59" x2="909.68" y2="319.45" stroke="#000" stroke-width="0.3mm" fill="none"/>
</g>
<g class="light-fixture light-surface">
<circle cx="633.49" cy="277.67" r="11.72" stroke="#000" stroke-width="0.3mm" fill="none"/>
<line x1="621.06" y1="265.24" x2="625.2" y2="269.39" stroke="#000" stroke-width="0.3mm" fill="none"/>
<line x1="645.92" y1="265.24" x2="641.78" y2="269.39" stroke="#000" stroke-width="0.3mm" fill="none"/>
<line x1="621.06" y1="290.11" x2="625.2" y2="285.96" stroke="#000" stroke-width="0.3mm" fill="none"/>
<line x1="645.92" y1="290.11" x2="641.78" y2="285.96" stroke="#000" stroke-width="0.3mm" fill="none"/>
</g>
<g class="smoke-detector">
<circle cx="432.56" cy="612.56" r="11.72" stroke="#000" stroke-width="0.3mm" fill="none"/>
<text x="432.56" y="612.56" fill="#000" font-family="sans-serif" font-size="10.55" text-anchor="middle" dominant-baseline="central">S/CO</text>
</g>
<g class="smoke-detector">
<circle cx="332.09" cy="311.16" r="11.72" stroke="#000" stroke-width="0.3mm" fill="none"/>
<text x="332.09" y="311.16" fill="#000" font-family="sans-serif" font-size="10.55" text-anchor="middle" dominant-baseline="central">S/CO</text>
</g>
</g>
</g>
<g class="layer-plumbing">
<g class="plumbing">
<polyline points="846.98,509.3 830.23,478.6" stroke="#0000CC" stroke-width="0.4mm" fill="none"/>
<text x="835.26" y="478.6" fill="#0000CC" font-family="sans-serif" font-size="5.02" text-anchor="start" dominant-baseline="central">1/2in</text>
<polyline points="846.98,509.3 863.72,478.6" stroke="#CC0000" stroke-width="0.4mm" fill="none"/>
<text x="868.74" y="478.6" fill="#CC0000" font-family="sans-serif" font-size="5.02" text-anchor="start" dominant-baseline="central">1/2in</text>
<polyline points="711.63,219.07 733.95,235.81" stroke="#0000CC" stroke-width="0.4mm" fill="none"/>
<text x="738.98" y="235.81" fill="#0000CC" font-family="sans-serif" font-size="5.02" text-anchor="start" dominant-baseline="central">1/2in</text>
<polyline points="711.63,219.07 733.95,202.33" stroke="#CC0000" stroke-width="0.4mm" fill="none"/>
<text x="738.98" y="202.33" fill="#CC0000" font-family="sans-serif" font-size="5.02" text-anchor="start" dominant-baseline="central">1/2in</text>
<polyline points="694.88,319.53 733.95,319.53" stroke="#006600" stroke-width="0.5mm" fill="none"/>
<polyline points="231.63,1093.95 164.65,1133.02" stroke="#006600" stroke-width="0.5mm" fill="none"/>
<g class="plumbing-fixture fixture-kitchen-sink">
<rect x="800.93" y="478.6" width="92.09" height="61.4" stroke="#000" stroke-width="0.3mm" fill="none"/>
<line x1="846.98" y1="478.6" x2="846.98" y2="540" stroke="#000" stroke-width="0.3mm" fill="none"/>
</g>
<g class="plumbing-fixture fixture-bathtub">
<rect x="466.05" y="118.6" width="167.44" height="0" stroke="#000" stroke-width="0.3mm" fill="none"/>
<path d="M 466.05,118.6 A 83.72,83.72 0 0,1 633.49,118.6" stroke="#000" stroke-width="0.3mm" fill="none"/>
<line x1="466.05" y1="118.6" x2="466.05" y2="118.6" stroke="#000" stroke-width="0.3mm" fill="none"/>
<line x1="633.49" y1="118.6" x2="633.49" y2="118.6" stroke="#000" stroke-width="0.3mm" fill="none"/>
</g>
<g class="plumbing-fixture fixture-toilet" transform="rotate(90, 694.8837209302325, 319.5348837209301)">
<rect x="674.79" y="280.47" width="40.19" height="19.53" stroke="#000" stroke-width="0.3mm" fill="none"/>
<ellipse cx="694.88" cy="327.35" rx="25.12" ry="31.26" stroke="#000" stroke-width="0.3mm" fill="none"/>
</g>
<g class="plumbing-fixture fixture-bath-sink" transform="rotate(90, 711.627906976744, 219.06976744186045)">
<ellipse cx="711.63" cy="219.07" rx="27.91" ry="22.33" stroke="#000" stroke-width="0.3mm" fill="none"/>
</g>
<g class="plumbing-fixture fixture-bath-sink" transform="rotate(180, 164.65116279069764, 1110.6976744186045)">
<ellipse cx="164.65" cy="1110.7" rx="27.91" ry="22.33" stroke="#000" stroke-width="0.3mm" fill="none"/>
</g>
<g class="plumbing-fixture fixture-toilet" transform="rotate(180, 231.62790697674413, 1093.9534883720928)">
<rect x="211.53" y="1054.88" width="40.19" height="19.53" stroke="#000" stroke-width="0.3mm" fill="none"/>
<ellipse cx="231.63" cy="1101.77" rx="25.12" ry="31.26" stroke="#000" stroke-width="0.3mm" fill="none"/>
</g>
</g>
</g>
<g class="layer-title-block">
<g class="title-block" font-family="'Helvetica','Arial',sans-serif" fill="#000">
<rect x="830" y="1251.63" width="350" height="140" stroke="#000" stroke-width="0.50" fill="white"/>
<line x1="830" y1="1341.63" x2="1180" y2="1341.63" stroke="#000" stroke-width="0.35"/>
<text x="842" y="1275.63" font-size="18" font-weight="bold">Small Two-Bedroom House</text>
<text x="842" y="1297.63" font-size="13">456 Oak Avenue, Anytown, ST 12345</text>
<text x="842" y="1317.63" font-size="13">John Doe</text>
<text x="842" y="1361.63" font-size="12">Sheet: A1</text>
<text x="1015" y="1361.63" font-size="12">Date: 2026-02-13</text>
<text x="842" y="1379.63" font-size="12">Scale: 1/4in = 1ft</text>
<text x="1015" y="1379.63" fill="#666" font-size="10">FloorScript v0.1</text>
</g>
</g>
</svg>