<svg xmlns="http://www.w3.org/2000/svg" viewBox="0 0 1200 1330" width="1200" height="1330">
<rect x="0" y="0" width="1200" height="1330" fill="white"/>
<g class="layer-structural">
<g class="walls">
<g fill="#333" stroke="none">
<rect x="686.09" y="760.43" width="11.74" height="125.22"/>
<rect x="686.09" y="447.39" width="11.74" height="125.22"/>
</g>
<g fill="#333" stroke="none">
<rect x="498.26" y="435.65" width="31.3" height="11.74"/>
<rect x="654.78" y="435.65" width="31.3" height="11.74"/>
</g>
<rect x="122.61" y="435.65" width="363.91" height="11.74" stroke="none" fill="#333"/>
<g fill="#333" stroke="none">
<rect x="122.61" y="885.65" width="31.3" height="16.96"/>
<rect x="232.17" y="885.65" width="78.26" height="16.96"/>
<rect x="404.35" y="885.65" width="62.61" height="16.96"/>
</g>
<rect x="697.83" y="435.65" width="313.04" height="11.74" stroke="none" fill="#333"/>
<rect x="486.52" y="341.74" width="11.74" height="15.65" stroke="none" fill="#333"/>
<g fill="#333" stroke="none">
<rect x="498.26" y="330" width="31.3" height="11.74"/>
<rect x="607.83" y="330" width="78.26" height="11.74"/>
</g>
<rect x="686.09" y="341.74" width="11.74" height="15.65" stroke="none" fill="#333"/>
<rect x="486.52" y="122.61" width="11.74" height="234.78" stroke="none" fill="#333"/>
<rect x="686.09" y="122.61" width="11.74" height="234.78" stroke="none" fill="#333"/>
<rect x="486.52" y="435.65" width="11.74" height="11.74" stroke="none" fill="#333"/>
<g fill="#000" stroke="none">
<rect x="279.13" y="885.65" width="31.3" height="16.96"/>
<rect x="404.35" y="885.65" width="62.61" height="16.96"/>
<rect x="592.17" y="885.65" width="93.91" height="16.96"/>
</g>
<rect x="110.87" y="435.65" width="11.74" height="11.74" stroke="none" fill="#333"/>
<rect x="486.52" y="330" width="11.74" height="11.74" stroke="none" fill="#333"/>
<rect x="686.09" y="110.87" width="11.74" height="11.74" stroke="none" fill="#333"/>
<rect x="486.52" y="110.87" width="11.74" height="11.74" stroke="none" fill="#333"/>
<rect x="686.09" y="330" width="11.74" height="11.74" stroke="none" fill="#333"/>
<g fill="#000" stroke="none">
<rect x="105.65" y="760.43" width="16.96" height="133.7"/>
<rect x="105.65" y="435.65" width="16.96" height="168.26"/>
</g>
<g fill="#000" stroke="none">
<rect x="686.09" y="885.65" width="105.65" height="16.96"/>
<rect x="916.96" y="885.65" width="110.87" height="16.96"/>
</g>
<g fill="#000" stroke="none">
<rect x="1010.87" y="760.43" width="16.96" height="142.17"/>
<rect x="1010.87" y="435.65" width="16.96" height="168.26"/>
</g>
<g fill="#000" stroke="none">
<rect x="93.91" y="105.65" width="204.78" height="16.96"/>
<rect x="423.91" y="105.65" width="74.35" height="16.96"/>
</g>
<g fill="#000" stroke="none">
<rect x="93.91" y="420" width="16.96" height="27.39"/>
<rect x="93.91" y="122.61" width="16.96" height="203.48"/>
</g>
<rect x="486.52" y="93.91" width="211.3" height="16.96" stroke="none" fill="#000"/>
<g fill="#000" stroke="none">
<rect x="686.09" y="105.65" width="43.04" height="16.96"/>
<rect x="854.35" y="105.65" width="173.48" height="16.96"/>
</g>
<g fill="#000" stroke="none">
<rect x="1010.87" y="404.35" width="16.96" height="43.04"/>
<rect x="1010.87" y="122.61" width="16.96" height="187.83"/>
</g>
<rect x="105.65" y="1059.13" width="185.22" height="16.96" stroke="none" fill="#000"/>
<rect x="279.13" y="894.13" width="11.74" height="165" stroke="none" fill="#333"/>
<rect x="105.65" y="885.65" width="16.96" height="173.48" stroke="none" fill="#000"/>
<g fill="#333" stroke="none">
<rect x="224.35" y="232.17" width="11.74" height="78.26"/>
<rect x="224.35" y="122.61" width="11.74" height="31.3"/>
</g>
<rect x="110.87" y="298.7" width="125.22" height="11.74" stroke="none" fill="#333"/>
<g fill="#333" stroke="none">
<rect x="901.3" y="232.17" width="11.74" height="46.96"/>
<rect x="901.3" y="122.61" width="11.74" height="15.65"/>
</g>
<rect x="901.3" y="267.39" width="109.57" height="11.74" stroke="none" fill="#333"/>
<rect x="1010.87" y="586.96" width="78.26" height="16.96" stroke="none" fill="#000"/>
<rect x="1010.87" y="760.43" width="78.26" height="16.96" stroke="none" fill="#000"/>
<g fill="#000" stroke="none">
<rect x="1089.13" y="744.78" width="16.96" height="32.61"/>
<rect x="1089.13" y="586.96" width="16.96" height="32.61"/>
</g>
</g>
<g class="opening cased-opening" stroke="#000" stroke-width="0.35mm" fill="none">
<line x1="686.09" y1="760.43" x2="697.83" y2="760.43"/>
<line x1="686.09" y1="760.43" x2="686.09" y2="778.04"/>
<line x1="697.83" y1="760.43" x2="697.83" y2="778.04"/>
<line x1="686.09" y1="572.61" x2="697.83" y2="572.61"/>
<line x1="686.09" y1="572.61" x2="686.09" y2="555"/>
<line x1="697.83" y1="572.61" x2="697.83" y2="555"/>
</g>
<g class="opening cased-opening" stroke="#000" stroke-width="0.35mm" fill="none">
<line x1="529.57" y1="435.65" x2="529.57" y2="447.39"/>
<line x1="529.57" y1="435.65" x2="511.96" y2="435.65"/>
<line x1="529.57" y1="447.39" x2="511.96" y2="447.39"/>
<line x1="654.78" y1="435.65" x2="654.78" y2="447.39"/>
<line x1="654.78" y1="435.65" x2="672.39" y2="435.65"/>
<line x1="654.78" y1="447.39" x2="672.39" y2="447.39"/>
</g>
<g class="opening door" stroke="#000" stroke-width="0.35mm" fill="none">
<line x1="404.35" y1="902.61" x2="404.35" y2="808.7"/>
<path d="M 404.35,808.7 A 93.91,93.91 0 0,0 310.43,902.61"/>
</g>
<g class="opening window" stroke="#000" stroke-width="0.35mm" fill="none">
<line x1="466.96" y1="889.89" x2="592.17" y2="889.89"/>
<line x1="466.96" y1="898.37" x2="592.17" y2="898.37"/>
</g>
<g class="opening door" stroke="#000" stroke-width="0.35mm" fill="none">
<line x1="153.91" y1="902.61" x2="153.91" y2="980.87"/>
<path d="M 153.91,980.87 A 78.26,78.26 0 0,0 232.17,902.61"/>
</g>
<g class="opening door" stroke="#000" stroke-width="0.35mm" fill="none">
<line x1="486.52" y1="435.65" x2="408.26" y2="435.65"/>
<path d="M 408.26,435.65 A 78.26,78.26 0 0,1 486.52,357.39"/>
</g>
<g class="opening door" stroke="#000" stroke-width="0.35mm" fill="none">
<line x1="529.57" y1="341.74" x2="529.57" y2="263.48"/>
<path d="M 529.57,263.48 A 78.26,78.26 0 0,1 607.83,341.74"/>
</g>
<g class="opening door" stroke="#000" stroke-width="0.35mm" fill="none">
<line x1="686.09" y1="435.65" x2="764.35" y2="435.65"/>
<path d="M 764.35,435.65 A 78.26,78.26 0 0,0 686.09,357.39"/>
</g>
<g class="opening door" stroke="#000" stroke-width="0.35mm" fill="none">
<line x1="486.52" y1="435.65" x2="408.26" y2="435.65"/>
<path d="M 408.26,435.65 A 78.26,78.26 0 0,1 486.52,357.39"/>
</g>
<g class="opening door" stroke="#000" stroke-width="0.35mm" fill="none">
<line x1="686.09" y1="435.65" x2="764.35" y2="435.65"/>
<path d="M 764.35,435.65 A 78.26,78.26 0 0,0 686.09,357.39"/>
</g>
<g class="opening door" stroke="#000" stroke-width="0.35mm" fill="none">
<line x1="404.35" y1="902.61" x2="404.35" y2="808.7"/>
<path d="M 404.35,808.7 A 93.91,93.91 0 0,0 310.43,902.61"/>
</g>
<g class="opening window" stroke="#000" stroke-width="0.35mm" fill="none">
<line x1="466.96" y1="889.89" x2="592.17" y2="889.89"/>
<line x1="466.96" y1="898.37" x2="592.17" y2="898.37"/>
</g>
<g class="opening window" stroke="#000" stroke-width="0.35mm" fill="none">
<line x1="109.89" y1="760.43" x2="109.89" y2="603.91"/>
<line x1="118.37" y1="760.43" x2="118.37" y2="603.91"/>
</g>
<g class="opening window" stroke="#000" stroke-width="0.35mm" fill="none">
<line x1="791.74" y1="889.89" x2="916.96" y2="889.89"/>
<line x1="791.74" y1="898.37" x2="916.96" y2="898.37"/>
</g>
<g class="opening window" stroke="#000" stroke-width="0.35mm" fill="none">
<line x1="298.7" y1="109.89" x2="423.91" y2="109.89"/>
<line x1="298.7" y1="118.37" x2="423.91" y2="118.37"/>
</g>
<g class="opening window" stroke="#000" stroke-width="0.35mm" fill="none">
<line x1="98.15" y1="420" x2="98.15" y2="326.09"/>
<line x1="106.63" y1="420" x2="106.63" y2="326.09"/>
</g>
<g class="opening window" stroke="#000" stroke-width="0.35mm" fill="none">
<line x1="729.13" y1="109.89" x2="854.35" y2="109.89"/>
<line x1="729.13" y1="118.37" x2="854.35" y2="118.37"/>
</g>
<g class="opening window" stroke="#000" stroke-width="0.35mm" fill="none">
<line x1="1015.11" y1="404.35" x2="1015.11" y2="310.43"/>
<line x1="1023.59" y1="404.35" x2="1023.59" y2="310.43"/>
</g>
<g class="opening door" stroke="#000" stroke-width="0.35mm" fill="none">
<line x1="224.35" y1="232.17" x2="146.09" y2="232.17"/>
<path d="M 146.09,232.17 A 78.26,78.26 0 0,1 224.35,153.91"/>
</g>
<g class="opening door" stroke="#000" stroke-width="0.35mm" fill="none">
<line x1="901.3" y1="138.26" x2="995.22" y2="138.26"/>
<path d="M 995.22,138.26 A 93.91,93.91 0 0,1 901.3,232.17"/>
</g>
<g class="opening window" stroke="#000" stroke-width="0.35mm" fill="none">
<line x1="1093.37" y1="744.78" x2="1093.37" y2="619.57"/>
<line x1="1101.85" y1="744.78" x2="1101.85" y2="619.57"/>
</g>
</g>
<g class="layer-labels">
<text x="404.35" y="666.52" fill="#000" font-family="'Helvetica','Arial',sans-serif" font-size="15.65" font-weight="500" text-anchor="middle" dominant-baseline="central">Living Room</text>
<text x="854.35" y="666.52" fill="#000" font-family="'Helvetica','Arial',sans-serif" font-size="15.65" font-weight="500" text-anchor="middle" dominant-baseline="central">Kitchen</text>
<text x="1050" y="682.17" fill="#000" font-family="'Helvetica','Arial',sans-serif" font-size="15.65" font-weight="500" text-anchor="middle" dominant-baseline="central">Bay Window</text>
<text x="592.17" y="388.7" fill="#000" font-family="'Helvetica','Arial',sans-serif" font-size="15.65" font-weight="500" text-anchor="middle" dominant-baseline="central">Hall</text>
<text x="298.7" y="279.13" fill="#000" font-family="'Helvetica','Arial',sans-serif" font-size="15.65" font-weight="500" text-anchor="middle" dominant-baseline="central">Bedroom 1</text>
<text x="173.48" y="216.52" fill="#000" font-family="'Helvetica','Arial',sans-serif" font-size="15.65" font-weight="500" text-anchor="middle" dominant-baseline="central">Walk-in Closet</text>
<text x="592.17" y="220.43" fill="#000" font-family="'Helvetica','Arial',sans-serif" font-size="15.65" font-weight="500" text-anchor="middle" dominant-baseline="central">Full Bath</text>
<text x="854.35" y="279.13" fill="#000" font-family="'Helvetica','Arial',sans-serif" font-size="15.65" font-weight="500" text-anchor="middle" dominant-baseline="central">Bedroom 2</text>
<text x="956.09" y="200.87" fill="#000" font-family="'Helvetica','Arial',sans-serif" font-size="15.65" font-weight="500" text-anchor="middle" dominant-baseline="central">Closet</text>
<text x="200.87" y="980.87" fill="#000" font-family="'Helvetica','Arial',sans-serif" font-size="15.65" font-weight="500" text-anchor="middle" dominant-baseline="central">Half Bath</text>
</g>
<g class="layer-dimensions">
<g class="dimension" stroke="#555" stroke-width="0.18mm">
<line x1="122.61" y1="384.78" x2="686.09" y2="384.78"/>
<line x1="117.91" y1="389.48" x2="127.3" y2="380.09"/>
<line x1="681.39" y1="389.48" x2="690.78" y2="380.09"/>
<text x="404.35" y="376.96" stroke="none" fill="#000" font-family="'Helvetica','Arial',sans-serif" font-size="10.96" text-anchor="middle">18&apos;-0&quot;</text>
</g>
<g class="dimension" stroke="#555" stroke-width="0.18mm">
<line x1="60" y1="885.65" x2="60" y2="447.39"/>
<line x1="55.3" y1="890.35" x2="64.7" y2="880.96"/>
<line x1="55.3" y1="452.09" x2="64.7" y2="442.7"/>
<text x="52.17" y="666.52" stroke="none" fill="#000" font-family="'Helvetica','Arial',sans-serif" font-size="10.96" text-anchor="middle" transform="rotate(-90, 52.17, 666.52)">14&apos;-0&quot;</text>
</g>
<g class="dimension" stroke="#555" stroke-width="0.18mm">
<line x1="697.83" y1="948.26" x2="1010.87" y2="948.26"/>
<line x1="693.13" y1="952.96" x2="702.52" y2="943.57"/>
<line x1="1006.17" y1="952.96" x2="1015.57" y2="943.57"/>
<text x="854.35" y="940.43" stroke="none" fill="#000" font-family="'Helvetica','Arial',sans-serif" font-size="10.96" text-anchor="middle">10&apos;-0&quot;</text>
</g>
<g class="dimension" stroke="#555" stroke-width="0.18mm">
<line x1="1073.48" y1="885.65" x2="1073.48" y2="447.39"/>
<line x1="1068.78" y1="890.35" x2="1078.17" y2="880.96"/>
<line x1="1068.78" y1="452.09" x2="1078.17" y2="442.7"/>
<text x="1065.65" y="666.52" stroke="none" fill="#000" font-family="'Helvetica','Arial',sans-serif" font-size="10.96" text-anchor="middle" transform="rotate(-90, 1065.65, 666.52)">14&apos;-0&quot;</text>
</g>
<g class="dimension" stroke="#555" stroke-width="0.18mm">
<line x1="498.26" y1="279.13" x2="686.09" y2="279.13"/>
<line x1="493.57" y1="283.83" x2="502.96" y2="274.43"/>
<line x1="681.39" y1="283.83" x2="690.78" y2="274.43"/>
<text x="592.17" y="271.3" stroke="none" fill="#000" font-family="'Helvetica','Arial',sans-serif" font-size="10.96" text-anchor="middle">6&apos;-0&quot;</text>
</g>
<g class="dimension" stroke="#555" stroke-width="0.18mm">
<line x1="748.7" y1="435.65" x2="748.7" y2="341.74"/>
<line x1="744" y1="440.35" x2="753.39" y2="430.96"/>
<line x1="744" y1="346.43" x2="753.39" y2="337.04"/>
<text x="740.87" y="388.7" stroke="none" fill="#000" font-family="'Helvetica','Arial',sans-serif" font-size="10.96" text-anchor="middle" transform="rotate(-90, 740.87, 388.7)">3&apos;-0&quot;</text>
</g>
<g class="dimension" stroke="#555" stroke-width="0.18mm">
<line x1="110.87" y1="60" x2="486.52" y2="60"/>
<line x1="106.17" y1="64.7" x2="115.57" y2="55.3"/>
<line x1="481.83" y1="64.7" x2="491.22" y2="55.3"/>
<text x="298.7" y="52.17" stroke="none" fill="#000" font-family="'Helvetica','Arial',sans-serif" font-size="10.96" text-anchor="middle">12&apos;-0&quot;</text>
</g>
<g class="dimension" stroke="#555" stroke-width="0.18mm">
<line x1="48.26" y1="435.65" x2="48.26" y2="122.61"/>
<line x1="43.57" y1="440.35" x2="52.96" y2="430.96"/>
<line x1="43.57" y1="127.3" x2="52.96" y2="117.91"/>
<text x="40.43" y="279.13" stroke="none" fill="#000" font-family="'Helvetica','Arial',sans-serif" font-size="10.96" text-anchor="middle" transform="rotate(-90, 40.43, 279.13)">10&apos;-0&quot;</text>
</g>
<g class="dimension" stroke="#555" stroke-width="0.18mm">
<line x1="498.26" y1="48.26" x2="686.09" y2="48.26"/>
<line x1="493.57" y1="52.96" x2="502.96" y2="43.57"/>
<line x1="681.39" y1="52.96" x2="690.78" y2="43.57"/>
<text x="592.17" y="40.43" stroke="none" fill="#000" font-family="'Helvetica','Arial',sans-serif" font-size="10.96" text-anchor="middle">6&apos;-0&quot;</text>
</g>
<g class="dimension" stroke="#555" stroke-width="0.18mm">
<line x1="748.7" y1="330" x2="748.7" y2="110.87"/>
<line x1="744" y1="334.7" x2="753.39" y2="325.3"/>
<line x1="744" y1="115.57" x2="753.39" y2="106.17"/>
<text x="740.87" y="220.43" stroke="none" fill="#000" font-family="'Helvetica','Arial',sans-serif" font-size="10.96" text-anchor="middle" transform="rotate(-90, 740.87, 220.43)">7&apos;-0&quot;</text>
</g>
<g class="dimension" stroke="#555" stroke-width="0.18mm">
<line x1="697.83" y1="60" x2="1010.87" y2="60"/>
<line x1="693.13" y1="64.7" x2="702.52" y2="55.3"/>
<line x1="1006.17" y1="64.7" x2="1015.57" y2="55.3"/>
<text x="854.35" y="52.17" stroke="none" fill="#000" font-family="'Helvetica','Arial',sans-serif" font-size="10.96" text-anchor="middle">10&apos;-0&quot;</text>
</g>
<g class="dimension" stroke="#555" stroke-width="0.18mm">
<line x1="1073.48" y1="435.65" x2="1073.48" y2="122.61"/>
<line x1="1068.78" y1="440.35" x2="1078.17" y2="430.96"/>
<line x1="1068.78" y1="127.3" x2="1078.17" y2="117.91"/>
<text x="1065.65" y="279.13" stroke="none" fill="#000" font-family="'Helvetica','Arial',sans-serif" font-size="10.96" text-anchor="middle" transform="rotate(-90, 1065.65, 279.13)">10&apos;-0&quot;</text>
</g>
<g class="dimension" stroke="#555" stroke-width="0.18mm">
<line x1="122.61" y1="1121.74" x2="279.13" y2="1121.74"/>
<line x1="117.91" y1="1126.43" x2="127.3" y2="1117.04"/>
<line x1="274.43" y1="1126.43" x2="283.83" y2="1117.04"/>
<text x="200.87" y="1113.91" stroke="none" fill="#000" font-family="'Helvetica','Arial',sans-serif" font-size="10.96" text-anchor="middle">5&apos;-0&quot;</text>
</g>
<g class="dimension" stroke="#555" stroke-width="0.18mm">
<line x1="60" y1="1059.13" x2="60" y2="902.61"/>
<line x1="55.3" y1="1063.83" x2="64.7" y2="1054.43"/>
<line x1="55.3" y1="907.3" x2="64.7" y2="897.91"/>
<text x="52.17" y="980.87" stroke="none" fill="#000" font-family="'Helvetica','Arial',sans-serif" font-size="10.96" text-anchor="middle" transform="rotate(-90, 52.17, 980.87)">5&apos;-0&quot;</text>
</g>
</g>
<g class="layer-electrical">
<g class="electrical">
<g class="electrical-panel">
<rect x="701.74" y="830.87" width="31.3" height="46.96" stroke="#000" stroke-width="0.4mm" fill="#fff"/>
<text x="717.39" y="847.3" fill="#000" font-family="sans-serif" font-size="6.89" font-weight="bold" text-anchor="middle" dominant-baseline="central">PANEL</text>
<text x="717.39" y="863.74" fill="#000" font-family="sans-serif" font-size="5.63" text-anchor="middle" dominant-baseline="central">200A</text>
<text x="717.39" y="882.52" fill="#666" font-family="sans-serif" font-size="5.01" text-anchor="middle" dominant-baseline="hanging">Main Panel</text>
</g>
<polyline points="717.39,854.35 404.35,854.35 404.35,666.52" stroke="#333" stroke-width="0.25mm" fill="none"/>
<polyline points="717.39,854.35 842.61,854.35 842.61,666.52" stroke="#333" stroke-width="0.25mm" fill="none"/>
<g class="outlet outlet-duplex">
<circle cx="435.65" cy="894.13" r="10.96" stroke="#000" stroke-width="0.3mm" fill="#fff"/>
<line x1="427.98" y1="890.3" x2="443.32" y2="890.3" stroke="#000" stroke-width="0.3mm" fill="none"/>
<line x1="427.98" y1="897.97" x2="443.32" y2="897.97" stroke="#000" stroke-width="0.3mm" fill="none"/>
</g>
<g class="outlet outlet-duplex">
<circle cx="114.13" cy="612.39" r="10.96" stroke="#000" stroke-width="0.3mm" fill="#fff"/>
<line x1="106.46" y1="608.56" x2="121.8" y2="608.56" stroke="#000" stroke-width="0.3mm" fill="none"/>
<line x1="106.46" y1="616.23" x2="121.8" y2="616.23" stroke="#000" stroke-width="0.3mm" fill="none"/>
</g>
<g class="outlet outlet-gfci">
<circle cx="791.74" cy="894.13" r="10.96" stroke="#000" stroke-width="0.3mm" fill="#fff"/>
<text x="791.74" y="909.78" fill="#000" font-size="7.67" text-anchor="middle" dominant-baseline="hanging">GFI</text>
</g>
<g class="outlet outlet-gfci">
<circle cx="854.35" cy="441.52" r="10.96" stroke="#000" stroke-width="0.3mm" fill="#fff"/>
<text x="854.35" y="457.17" fill="#000" font-size="7.67" text-anchor="middle" dominant-baseline="hanging">GFI</text>
</g>
<g class="outlet outlet-duplex">
<circle cx="298.7" cy="114.13" r="10.96" stroke="#000" stroke-width="0.3mm" fill="#fff"/>
<line x1="291.03" y1="110.3" x2="306.37" y2="110.3" stroke="#000" stroke-width="0.3mm" fill="none"/>
<line x1="291.03" y1="117.97" x2="306.37" y2="117.97" stroke="#000" stroke-width="0.3mm" fill="none"/>
</g>
<g class="outlet outlet-duplex">
<circle cx="102.39" cy="384.78" r="10.96" stroke="#000" stroke-width="0.3mm" fill="#fff"/>
<line x1="94.72" y1="380.95" x2="110.06" y2="380.95" stroke="#000" stroke-width="0.3mm" fill="none"/>
<line x1="94.72" y1="388.62" x2="110.06" y2="388.62" stroke="#000" stroke-width="0.3mm" fill="none"/>
</g>
<g class="outlet outlet-duplex">
<circle cx="854.35" cy="114.13" r="10.96" stroke="#000" stroke-width="0.3mm" fill="#fff"/>
<line x1="846.68" y1="110.3" x2="862.02" y2="110.3" stroke="#000" stroke-width="0.3mm" fill="none"/>
<line x1="846.68" y1="117.97" x2="862.02" y2="117.97" stroke="#000" stroke-width="0.3mm" fill="none"/>
</g>
<g class="outlet outlet-duplex">
<circle cx="1019.35" cy="353.48" r="10.96" stroke="#000" stroke-width="0.3mm" fill="#fff"/>
<line x1="1011.68" y1="349.64" x2="1027.02" y2="349.64" stroke="#000" stroke-width="0.3mm" fill="none"/>
<line x1="1011.68" y1="357.31" x2="1027.02" y2="357.31" stroke="#000" stroke-width="0.3mm" fill="none"/>
</g>
<g class="outlet outlet-gfci">
<circle cx="691.96" cy="236.09" r="10.96" stroke="#000" stroke-width="0.3mm" fill="#fff"/>
<text x="691.96" y="251.74" fill="#000" font-size="7.67" text-anchor="middle" dominant-baseline="hanging">GFI</text>
</g>
<g class="outlet outlet-gfci">
<circle cx="285" cy="996.52" r="10.96" stroke="#000" stroke-width="0.3mm" fill="#fff"/>
<text x="285" y="1012.17" fill="#000" font-size="7.67" text-anchor="middle" dominant-baseline="hanging">GFI</text>
</g>
<g class="switch switch-single">
<circle cx="247.83" cy="894.13" r="10.96" stroke="#000" stroke-width="0.3mm" fill="#fff"/>
<text x="247.83" y="894.13" fill="#000" font-family="sans-serif" font-size="12.05" font-weight="bold" text-anchor="middle" dominant-baseline="central">S</text>
</g>
<g class="switch switch-single">
<circle cx="691.96" cy="823.04" r="10.96" stroke="#000" stroke-width="0.3mm" fill="#fff"/>
<text x="691.96" y="823.04" fill="#000" font-family="sans-serif" font-size="12.05" font-weight="bold" text-anchor="middle" dominant-baseline="central">S</text>
</g>
<g class="switch switch-single">
<circle cx="466.96" cy="441.52" r="10.96" stroke="#000" stroke-width="0.3mm" fill="#fff"/>
<text x="466.96" y="441.52" fill="#000" font-family="sans-serif" font-size="12.05" font-weight="bold" text-anchor="middle" dominant-baseline="central">S</text>
</g>
<g class="switch switch-single">
<circle cx="729.13" cy="441.52" r="10.96" stroke="#000" stroke-width="0.3mm" fill="#fff"/>
<text x="729.13" y="441.52" fill="#000" font-family="sans-serif" font-size="12.05" font-weight="bold" text-anchor="middle" dominant-baseline="central">S</text>
</g>
<g class="switch switch-single">
<circle cx="639.13" cy="335.87" r="10.96" stroke="#000" stroke-width="0.3mm" fill="#fff"/>
<text x="639.13" y="335.87" fill="#000" font-family="sans-serif" font-size="12.05" font-weight="bold" text-anchor="middle" dominant-baseline="central">S</text>
</g>
<g class="light-fixture light-recessed">
<rect x="391.2" y="653.37" width="26.3" height="26.3" stroke="#000" stroke-width="0.3mm" fill="none"/>
<circle cx="404.35" cy="666.52" r="7.67" stroke="#000" stroke-width="0.3mm" fill="none"/>
</g>
<g class="light-fixture light-surface">
<circle cx="842.61" cy="666.52" r="10.96" stroke="#000" stroke-width="0.3mm" fill="none"/>
<line x1="830.99" y1="654.9" x2="834.86" y2="658.77" stroke="#000" stroke-width="0.3mm" fill="none"/>
<line x1="854.23" y1="654.9" x2="850.36" y2="658.77" stroke="#000" stroke-width="0.3mm" fill="none"/>
<line x1="830.99" y1="678.14" x2="834.86" y2="674.27" stroke="#000" stroke-width="0.3mm" fill="none"/>
<line x1="854.23" y1="678.14" x2="850.36" y2="674.27" stroke="#000" stroke-width="0.3mm" fill="none"/>
</g>
<g class="light-fixture light-surface">
<circle cx="310.43" cy="290.87" r="10.96" stroke="#000" stroke-width="0.3mm" fill="none"/>
<line x1="298.81" y1="279.25" x2="302.69" y2="283.12" stroke="#000" stroke-width="0.3mm" fill="none"/>
<line x1="322.06" y1="279.25" x2="318.18" y2="283.12" stroke="#000" stroke-width="0.3mm" fill="none"/>
<line x1="298.81" y1="302.49" x2="302.69" y2="298.62" stroke="#000" stroke-width="0.3mm" fill="none"/>
<line x1="322.06" y1="302.49" x2="318.18" y2="298.62" stroke="#000" stroke-width="0.3mm" fill="none"/>
</g>
<g class="light-fixture light-surface">
<circle cx="842.61" cy="290.87" r="10.96" stroke="#000" stroke-width="0.3mm" fill="none"/>
<line x1="830.99" y1="279.25" x2="834.86" y2="283.12" stroke="#000" stroke-width="0.3mm" fill="none"/>
<line x1="854.23" y1="279.25" x2="850.36" y2="283.12" stroke="#000" stroke-width="0.3mm" fill="none"/>
<line x1="830.99" y1="302.49" x2="834.86" y2="298.62" stroke="#000" stroke-width="0.3mm" fill="none"/>
<line x1="854.23" y1="302.49" x2="850.36" y2="298.62" stroke="#000" stroke-width="0.3mm" fill="none"/>
</g>
<g class="light-fixture light-surface">
<circle cx="592.17" cy="259.57" r="10.96" stroke="#000" stroke-width="0.3mm" fill="none"/>
<line x1="580.55" y1="247.94" x2="584.43" y2="251.82" stroke="#000" stroke-width="0.3mm" fill="none"/>
<line x1="603.8" y1="247.94" x2="599.92" y2="251.82" stroke="#000" stroke-width="0.3mm" fill="none"/>
<line x1="580.55" y1="271.19" x2="584.43" y2="267.31" stroke="#000" stroke-width="0.3mm" fill="none"/>
<line x1="603.8" y1="271.19" x2="599.92" y2="267.31" stroke="#000" stroke-width="0.3mm" fill="none"/>
</g>
<g class="smoke-detector">
<circle cx="404.35" cy="572.61" r="10.96" stroke="#000" stroke-width="0.3mm" fill="none"/>
<text x="404.35" y="572.61" fill="#000" font-family="sans-serif" font-size="9.86" text-anchor="middle" dominant-baseline="central">S/CO</text>
</g>
<g class="smoke-detector">
<circle cx="310.43" cy="290.87" r="10.96" stroke="#000" stroke-width="0.3mm" fill="none"/>
<text x="310.43" y="290.87" fill="#000" font-family="sans-serif" font-size="9.86" text-anchor="middle" dominant-baseline="central">S/CO</text>
</g>
</g>
</g>
<g class="layer-plumbing">
<g class="plumbing">
<polyline points="791.74,476.09 776.09,447.39" stroke="#0000CC" stroke-width="0.4mm" fill="none"/>
<text x="780.78" y="447.39" fill="#0000CC" font-family="sans-serif" font-size="4.7" text-anchor="start" dominant-baseline="central">1/2in</text>
<polyline points="791.74,476.09 807.39,447.39" stroke="#CC0000" stroke-width="0.4mm" fill="none"/>
<text x="812.09" y="447.39" fill="#CC0000" font-family="sans-serif" font-size="4.7" text-anchor="start" dominant-baseline="central">1/2in</text>
<polyline points="676.96,204.78 697.83,220.43" stroke="#0000CC" stroke-width="0.4mm" fill="none"/>
<text x="702.52" y="220.43" fill="#0000CC" font-family="sans-serif" font-size="4.7" text-anchor="start" dominant-baseline="central">1/2in</text>
<polyline points="676.96,204.78 697.83,189.13" stroke="#CC0000" stroke-width="0.4mm" fill="none"/>
<text x="702.52" y="189.13" fill="#CC0000" font-family="sans-serif" font-size="4.7" text-anchor="start" dominant-baseline="central">1/2in</text>
<polyline points="661.3,298.7 697.83,298.7" stroke="#006600" stroke-width="0.5mm" fill="none"/>
<polyline points="216.52,1022.61 153.91,1059.13" stroke="#006600" stroke-width="0.5mm" fill="none"/>
<g class="plumbing-fixture fixture-kitchen-sink">
<rect x="748.7" y="447.39" width="86.09" height="57.39" stroke="#000" stroke-width="0.3mm" fill="none"/>
<line x1="791.74" y1="447.39" x2="791.74" y2="504.78" stroke="#000" stroke-width="0.3mm" fill="none"/>
</g>
<g class="plumbing-fixture fixture-bathtub">
<rect x="435.65" y="110.87" width="156.52" height="0" stroke="#000" stroke-width="0.3mm" fill="none"/>
<path d="M 435.65,110.87 A 78.26,78.26 0 0,1 592.17,110.87" stroke="#000" stroke-width="0.3mm" fill="none"/>
<line x1="435.65" y1="110.87" x2="435.65" y2="110.87" stroke="#000" stroke-width="0.3mm" fill="none"/>
<line x1="592.17" y1="110.87" x2="592.17" y2="110.87" stroke="#000" stroke-width="0.3mm" fill="none"/>
</g>
<g class="plumbing-fixture fixture-toilet" transform="rotate(90, 661.3043478260869, 298.6956521739128)">
<rect x="642.52" y="262.17" width="37.57" height="18.26" stroke="#000" stroke-width="0.3mm" fill="none"/>
<ellipse cx="661.3" cy="306" rx="23.48" ry="29.22" stroke="#000" stroke-width="0.3mm" fill="none"/>
</g>
<g class="plumbing-fixture fixture-bath-sink" transform="rotate(90, 676.9565217391304, 204.78260869565202)">
<ellipse cx="676.96" cy="204.78" rx="26.09" ry="20.87" stroke="#000" stroke-width="0.3mm" fill="none"/>
</g>
<g class="plumbing-fixture fixture-bath-sink" transform="rotate(180, 153.91304347826085, 1038.260869565217)">
<ellipse cx="153.91" cy="1038.26" rx="26.09" ry="20.87" stroke="#000" stroke-width="0.3mm" fill="none"/>
</g>
<g class="plumbing-fixture fixture-toilet" transform="rotate(180, 216.52173913043475, 1022.6086956521737)">
<rect x="197.74" y="986.09" width="37.57" height="18.26" stroke="#000" stroke-width="0.3mm" fill="none"/>
<ellipse cx="216.52" cy="1029.91" rx="23.48" ry="29.22" stroke="#000" stroke-width="0.3mm" fill="none"/>
</g>
</g>
</g>
<g class="layer-title-block">
<g class="title-block" font-family="'Helvetica','Arial',sans-serif" fill="#000">
<rect x="830" y="1170" width="350" height="140" stroke="#000" stroke-width="0.50" fill="white"/>
<line x1="830" y1="1260" x2="1180" y2="1260" stroke="#000" stroke-width="0.35"/>
<text x="842" y="1194" font-size="18" font-weight="bold">Small Two-Bedroom House</text>
<text x="842" y="1216" font-size="13">456 Oak Avenue, Anytown, ST 12345</text>
<text x="842" y="1236" font-size="13">John Doe</text>
<text x="842" y="1280" font-size="12">Sheet: A1</text>
<text x="1015" y="1280" font-size="12">Date: 2026-02-13</text>
<text x="842" y="1298" font-size="12">Scale: 1/4in = 1ft</text>
<text x="1015" y="1298" fill="#666" font-size="10">FloorScript v0.1</text>
</g>
</g>
</svg>