<svg xmlns="http://www.w3.org/2000/svg" viewBox="0 0 1200 1185.88" width="1200" height="1185.88">
<rect x="0" y="0" width="1200" height="1185.88" fill="white"/>
<g class="layer-structural">
<g class="walls">
<g fill="#333" stroke="none">
<rect x="645.71" y="436.76" width="13.06" height="34.82"/>
<rect x="645.71" y="123.34" width="13.06" height="104.47"/>
</g>
<rect x="419.35" y="541.23" width="226.36" height="18.86" stroke="none" fill="#333"/>
<g fill="#333" stroke="none">
<rect x="123.34" y="541.23" width="69.65" height="18.86"/>
<rect x="280.05" y="541.23" width="121.89" height="18.86"/>
</g>
<rect x="404.11" y="560.1" width="13.06" height="208.95" stroke="none" fill="#333"/>
<rect x="401.93" y="541.23" width="17.41" height="18.86" stroke="none" fill="#000"/>
<rect x="645.71" y="471.58" width="13.06" height="88.51" stroke="none" fill="#333"/>
<rect x="406.29" y="769.04" width="13.06" height="139.3" stroke="none" fill="#333"/>
<rect x="104.47" y="104.47" width="554.29" height="18.86" stroke="none" fill="#000"/>
<g fill="#000" stroke="none">
<rect x="104.47" y="401.93" width="18.86" height="158.16"/>
<rect x="104.47" y="123.34" width="18.86" height="174.12"/>
</g>
<rect x="645.71" y="104.47" width="449.82" height="18.86" stroke="none" fill="#000"/>
<rect x="645.71" y="471.58" width="449.82" height="13.06" stroke="none" fill="#333"/>
<g fill="#000" stroke="none">
<rect x="1076.66" y="367.11" width="18.86" height="104.47"/>
<rect x="1076.66" y="123.34" width="18.86" height="104.47"/>
</g>
<rect x="406.29" y="908.34" width="252.48" height="13.06" stroke="none" fill="#333"/>
<rect x="645.71" y="550.67" width="13.06" height="357.68" stroke="none" fill="#333"/>
<g fill="#000" stroke="none">
<rect x="104.47" y="769.04" width="88.51" height="18.86"/>
<rect x="297.46" y="769.04" width="117.53" height="18.86"/>
</g>
<rect x="104.47" y="550.67" width="18.86" height="218.38" stroke="none" fill="#000"/>
</g>
<g class="opening cased-opening" stroke="#000" stroke-width="0.35mm" fill="none">
<line x1="645.71" y1="436.76" x2="658.77" y2="436.76"/>
<line x1="645.71" y1="436.76" x2="645.71" y2="456.35"/>
<line x1="658.77" y1="436.76" x2="658.77" y2="456.35"/>
<line x1="645.71" y1="227.81" x2="658.77" y2="227.81"/>
<line x1="645.71" y1="227.81" x2="645.71" y2="208.22"/>
<line x1="658.77" y1="227.81" x2="658.77" y2="208.22"/>
</g>
<g class="opening door" stroke="#000" stroke-width="0.35mm" fill="none">
<line x1="192.99" y1="560.1" x2="192.99" y2="647.16"/>
<path d="M 192.99,647.16 A 87.06,87.06 0 0,0 280.05,560.1"/>
</g>
<g class="opening door" stroke="#000" stroke-width="0.35mm" fill="none">
<line x1="104.47" y1="297.46" x2="208.95" y2="297.46"/>
<path d="M 208.95,297.46 A 104.47,104.47 0 0,1 104.47,401.93"/>
</g>
<g class="opening window" stroke="#000" stroke-width="0.35mm" fill="none">
<line x1="1081.38" y1="367.11" x2="1081.38" y2="227.81"/>
<line x1="1090.81" y1="367.11" x2="1090.81" y2="227.81"/>
</g>
<g class="opening window" stroke="#000" stroke-width="0.35mm" fill="none">
<line x1="192.99" y1="773.76" x2="297.46" y2="773.76"/>
<line x1="192.99" y1="783.19" x2="297.46" y2="783.19"/>
</g>
</g>
<g class="layer-labels">
<text x="384.52" y="332.29" fill="#000" font-family="'Helvetica','Arial',sans-serif" font-size="17.41" font-weight="500" text-anchor="middle" dominant-baseline="central">Living Room</text>
<text x="867.71" y="297.46" fill="#000" font-family="'Helvetica','Arial',sans-serif" font-size="17.41" font-weight="500" text-anchor="middle" dominant-baseline="central">Kitchen</text>
<text x="532.53" y="734.22" fill="#000" font-family="'Helvetica','Arial',sans-serif" font-size="17.41" font-weight="500" text-anchor="middle" dominant-baseline="central">Hallway</text>
<text x="262.64" y="664.57" fill="#000" font-family="'Helvetica','Arial',sans-serif" font-size="17.41" font-weight="500" text-anchor="middle" dominant-baseline="central">Bathroom</text>
</g>
<g class="layer-dimensions">
<g class="dimension" stroke="#555" stroke-width="0.18mm">
<line x1="123.34" y1="53.69" x2="645.71" y2="53.69"/>
<line x1="118.11" y1="58.91" x2="128.56" y2="48.46"/>
<line x1="640.48" y1="58.91" x2="650.93" y2="48.46"/>
<text x="384.52" y="44.98" stroke="none" fill="#000" font-family="'Helvetica','Arial',sans-serif" font-size="12.19" text-anchor="middle">15&apos;-0&quot;</text>
</g>
<g class="dimension" stroke="#555" stroke-width="0.18mm">
<line x1="53.69" y1="541.23" x2="53.69" y2="123.34"/>
<line x1="48.46" y1="546.46" x2="58.91" y2="536.01"/>
<line x1="48.46" y1="128.56" x2="58.91" y2="118.11"/>
<text x="44.98" y="332.29" stroke="none" fill="#000" font-family="'Helvetica','Arial',sans-serif" font-size="12.19" text-anchor="middle" transform="rotate(-90, 44.98, 332.29)">12&apos;-0&quot;</text>
</g>
<g class="dimension" stroke="#555" stroke-width="0.18mm">
<line x1="658.77" y1="541.23" x2="1076.66" y2="541.23"/>
<line x1="653.54" y1="546.46" x2="663.99" y2="536.01"/>
<line x1="1071.44" y1="546.46" x2="1081.89" y2="536.01"/>
<text x="867.71" y="532.53" stroke="none" fill="#000" font-family="'Helvetica','Arial',sans-serif" font-size="12.19" text-anchor="middle">12&apos;-0&quot;</text>
</g>
<g class="dimension" stroke="#555" stroke-width="0.18mm">
<line x1="1146.31" y1="471.58" x2="1146.31" y2="123.34"/>
<line x1="1141.09" y1="476.81" x2="1151.54" y2="466.36"/>
<line x1="1141.09" y1="128.56" x2="1151.54" y2="118.11"/>
<text x="1137.61" y="297.46" stroke="none" fill="#000" font-family="'Helvetica','Arial',sans-serif" font-size="12.19" text-anchor="middle" transform="rotate(-90, 1137.61, 297.46)">10&apos;-0&quot;</text>
</g>
<g class="dimension" stroke="#555" stroke-width="0.18mm">
<line x1="419.35" y1="977.99" x2="645.71" y2="977.99"/>
<line x1="414.12" y1="983.22" x2="424.57" y2="972.77"/>
<line x1="640.48" y1="983.22" x2="650.93" y2="972.77"/>
<text x="532.53" y="969.29" stroke="none" fill="#000" font-family="'Helvetica','Arial',sans-serif" font-size="12.19" text-anchor="middle">6&apos;-6&quot;</text>
</g>
<g class="dimension" stroke="#555" stroke-width="0.18mm">
<line x1="715.36" y1="908.34" x2="715.36" y2="560.1"/>
<line x1="710.13" y1="913.57" x2="720.58" y2="903.12"/>
<line x1="710.13" y1="565.32" x2="720.58" y2="554.87"/>
<text x="706.65" y="734.22" stroke="none" fill="#000" font-family="'Helvetica','Arial',sans-serif" font-size="12.19" text-anchor="middle" transform="rotate(-90, 706.65, 734.22)">10&apos;-0&quot;</text>
</g>
<g class="dimension" stroke="#555" stroke-width="0.18mm">
<line x1="123.34" y1="838.69" x2="401.93" y2="838.69"/>
<line x1="118.11" y1="843.92" x2="128.56" y2="833.47"/>
<line x1="396.71" y1="843.92" x2="407.16" y2="833.47"/>
<text x="262.64" y="829.99" stroke="none" fill="#000" font-family="'Helvetica','Arial',sans-serif" font-size="12.19" text-anchor="middle">8&apos;-0&quot;</text>
</g>
<g class="dimension" stroke="#555" stroke-width="0.18mm">
<line x1="53.69" y1="769.04" x2="53.69" y2="560.1"/>
<line x1="48.46" y1="774.27" x2="58.91" y2="763.82"/>
<line x1="48.46" y1="565.32" x2="58.91" y2="554.87"/>
<text x="44.98" y="664.57" stroke="none" fill="#000" font-family="'Helvetica','Arial',sans-serif" font-size="12.19" text-anchor="middle" transform="rotate(-90, 44.98, 664.57)">6&apos;-0&quot;</text>
</g>
</g>
<g class="layer-electrical">
<g class="electrical">
<g class="electrical-panel">
<rect x="175.57" y="166.87" width="34.82" height="52.24" stroke="#000" stroke-width="0.4mm" fill="#fff"/>
<text x="192.99" y="185.15" fill="#000" font-family="sans-serif" font-size="7.66" font-weight="bold" text-anchor="middle" dominant-baseline="central">PANEL</text>
<text x="192.99" y="203.43" fill="#000" font-family="sans-serif" font-size="6.27" text-anchor="middle" dominant-baseline="central">200A</text>
<text x="192.99" y="224.33" fill="#666" font-family="sans-serif" font-size="5.57" text-anchor="middle" dominant-baseline="hanging">Main Panel</text>
</g>
<polyline points="192.99,192.99 192.99,332.29 384.52,332.29" stroke="#333" stroke-width="0.25mm" fill="none"/>
<polyline points="192.99,192.99 645.71,192.99 854.66,192.99 854.66,297.46" stroke="#333" stroke-width="0.25mm" fill="none"/>
<g class="outlet outlet-duplex">
<circle cx="297.46" cy="550.67" r="12.19" stroke="#000" stroke-width="0.3mm" fill="#fff"/>
<line x1="288.93" y1="546.4" x2="305.99" y2="546.4" stroke="#000" stroke-width="0.3mm" fill="none"/>
<line x1="288.93" y1="554.93" x2="305.99" y2="554.93" stroke="#000" stroke-width="0.3mm" fill="none"/>
</g>
<g class="outlet outlet-gfci">
<circle cx="798.07" cy="478.11" r="12.19" stroke="#000" stroke-width="0.3mm" fill="#fff"/>
<text x="798.07" y="495.53" fill="#000" font-size="8.53" text-anchor="middle" dominant-baseline="hanging">GFI</text>
</g>
<g class="outlet outlet-gfci">
<circle cx="113.91" cy="664.57" r="12.19" stroke="#000" stroke-width="0.3mm" fill="#fff"/>
<text x="113.91" y="681.98" fill="#000" font-size="8.53" text-anchor="middle" dominant-baseline="hanging">GFI</text>
</g>
<g class="switch switch-single">
<circle cx="113.91" cy="262.64" r="12.19" stroke="#000" stroke-width="0.3mm" fill="#fff"/>
<text x="113.91" y="262.64" fill="#000" font-family="sans-serif" font-size="13.41" font-weight="bold" text-anchor="middle" dominant-baseline="central">S</text>
</g>
<g class="switch switch-three-way">
<circle cx="937.36" cy="478.11" r="12.19" stroke="#000" stroke-width="0.3mm" fill="#fff"/>
<text x="937.36" y="478.11" fill="#000" font-family="sans-serif" font-size="13.41" font-weight="bold" text-anchor="middle" dominant-baseline="central">S3</text>
</g>
<g class="light-fixture light-recessed">
<rect x="369.9" y="317.66" width="29.25" height="29.25" stroke="#000" stroke-width="0.3mm" fill="none"/>
<circle cx="384.52" cy="332.29" r="8.53" stroke="#000" stroke-width="0.3mm" fill="none"/>
</g>
<g class="light-fixture light-surface">
<circle cx="854.66" cy="297.46" r="12.19" stroke="#000" stroke-width="0.3mm" fill="none"/>
<line x1="841.73" y1="284.53" x2="846.04" y2="288.84" stroke="#000" stroke-width="0.3mm" fill="none"/>
<line x1="867.58" y1="284.53" x2="863.27" y2="288.84" stroke="#000" stroke-width="0.3mm" fill="none"/>
<line x1="841.73" y1="310.39" x2="846.04" y2="306.08" stroke="#000" stroke-width="0.3mm" fill="none"/>
<line x1="867.58" y1="310.39" x2="863.27" y2="306.08" stroke="#000" stroke-width="0.3mm" fill="none"/>
</g>
<g class="smoke-detector">
<circle cx="384.52" cy="192.99" r="12.19" stroke="#000" stroke-width="0.3mm" fill="none"/>
<text x="384.52" y="192.99" fill="#000" font-family="sans-serif" font-size="10.97" text-anchor="middle" dominant-baseline="central">S/CO</text>
</g>
</g>
</g>
<g class="layer-plumbing">
<g class="plumbing">
<polyline points="297.46,745.83 280.05,769.04" stroke="#0000CC" stroke-width="0.4mm" fill="none"/>
<text x="285.27" y="769.04" fill="#0000CC" font-family="sans-serif" font-size="5.22" text-anchor="start" dominant-baseline="central">1/2in</text>
<polyline points="297.46,745.83 314.87,769.04" stroke="#CC0000" stroke-width="0.4mm" fill="none"/>
<text x="320.1" y="769.04" fill="#CC0000" font-family="sans-serif" font-size="5.22" text-anchor="start" dominant-baseline="central">1/2in</text>
<polyline points="192.99,728.42 192.99,769.04" stroke="#006600" stroke-width="0.5mm" fill="none"/>
<g class="plumbing-fixture fixture-toilet" transform="rotate(180, 192.9866989117291, 728.4159613059248)">
<rect x="172.09" y="687.79" width="41.79" height="20.31" stroke="#000" stroke-width="0.3mm" fill="none"/>
<ellipse cx="192.99" cy="736.54" rx="26.12" ry="32.5" stroke="#000" stroke-width="0.3mm" fill="none"/>
</g>
<g class="plumbing-fixture fixture-bath-sink" transform="rotate(180, 297.4607013301088, 745.8282950423215)">
<ellipse cx="297.46" cy="745.83" rx="29.02" ry="23.22" stroke="#000" stroke-width="0.3mm" fill="none"/>
</g>
</g>
</g>
<g class="layer-title-block">
<g class="title-block" font-family="'Helvetica','Arial',sans-serif" fill="#000">
<rect x="830" y="1025.88" width="350" height="140" stroke="#000" stroke-width="0.50" fill="white"/>
<line x1="830" y1="1115.88" x2="1180" y2="1115.88" stroke="#000" stroke-width="0.35"/>
<text x="842" y="1049.88" font-size="18" font-weight="bold">Multi-Room Floor Plan</text>
<text x="842" y="1071.88" font-size="13">456 Oak Avenue, Anytown, ST 12345</text>
<text x="842" y="1091.88" font-size="13">John Doe</text>
<text x="842" y="1135.88" font-size="12">Sheet: A1</text>
<text x="1015" y="1135.88" font-size="12">Date: 2026-02-11</text>
<text x="842" y="1153.88" font-size="12">Scale: 1/4in = 1ft</text>
<text x="1015" y="1153.88" fill="#666" font-size="10">FloorScript v0.1</text>
</g>
</g>
</svg>