<svg xmlns="http://www.w3.org/2000/svg" viewBox="0 0 1200 1332.83" width="1200" height="1332.83">
<rect x="0" y="0" width="1200" height="1332.83" fill="white"/>
<g class="layer-structural">
<g class="walls">
<g fill="#333" stroke="none">
<rect x="677.95" y="745.28" width="10.63" height="113.39"/>
<rect x="677.95" y="461.81" width="10.63" height="113.39"/>
</g>
<g fill="#333" stroke="none">
<rect x="507.87" y="451.18" width="28.35" height="10.63"/>
<rect x="649.61" y="451.18" width="28.35" height="10.63"/>
</g>
<rect x="167.72" y="451.18" width="329.53" height="10.63" stroke="none" fill="#333"/>
<g fill="#333" stroke="none">
<rect x="167.72" y="858.66" width="28.35" height="15.35"/>
<rect x="266.93" y="858.66" width="42.52" height="15.35"/>
</g>
<rect x="688.58" y="451.18" width="283.46" height="10.63" stroke="none" fill="#333"/>
<rect x="497.24" y="366.14" width="10.63" height="14.17" stroke="none" fill="#333"/>
<g fill="#333" stroke="none">
<rect x="507.87" y="355.51" width="28.35" height="10.63"/>
<rect x="607.09" y="355.51" width="70.87" height="10.63"/>
</g>
<rect x="677.95" y="366.14" width="10.63" height="14.17" stroke="none" fill="#333"/>
<rect x="497.24" y="167.72" width="10.63" height="187.8" stroke="none" fill="#333"/>
<rect x="677.95" y="167.72" width="10.63" height="187.8" stroke="none" fill="#333"/>
<rect x="497.24" y="451.18" width="10.63" height="10.63" stroke="none" fill="#333"/>
<g fill="#000" stroke="none">
<rect x="309.45" y="858.66" width="28.35" height="15.35"/>
<rect x="422.83" y="858.66" width="56.69" height="15.35"/>
<rect x="592.91" y="858.66" width="85.04" height="15.35"/>
</g>
<rect x="157.09" y="451.18" width="10.63" height="10.63" stroke="none" fill="#333"/>
<rect x="497.24" y="355.51" width="10.63" height="10.63" stroke="none" fill="#333"/>
<rect x="677.95" y="157.09" width="10.63" height="10.63" stroke="none" fill="#333"/>
<rect x="497.24" y="157.09" width="10.63" height="10.63" stroke="none" fill="#333"/>
<rect x="677.95" y="355.51" width="10.63" height="10.63" stroke="none" fill="#333"/>
<g fill="#000" stroke="none">
<rect x="152.36" y="745.28" width="15.35" height="121.06"/>
<rect x="152.36" y="451.18" width="15.35" height="152.36"/>
</g>
<g fill="#000" stroke="none">
<rect x="677.95" y="858.66" width="95.67" height="15.35"/>
<rect x="887.01" y="858.66" width="100.39" height="15.35"/>
</g>
<g fill="#000" stroke="none">
<rect x="972.05" y="745.28" width="15.35" height="128.74"/>
<rect x="972.05" y="451.18" width="15.35" height="152.36"/>
</g>
<g fill="#000" stroke="none">
<rect x="141.73" y="152.36" width="185.43" height="15.35"/>
<rect x="440.55" y="152.36" width="67.32" height="15.35"/>
</g>
<g fill="#000" stroke="none">
<rect x="141.73" y="437.01" width="15.35" height="24.8"/>
<rect x="141.73" y="167.72" width="15.35" height="184.25"/>
</g>
<rect x="497.24" y="141.73" width="191.34" height="15.35" stroke="none" fill="#000"/>
<g fill="#000" stroke="none">
<rect x="677.95" y="152.36" width="38.98" height="15.35"/>
<rect x="830.31" y="152.36" width="157.09" height="15.35"/>
</g>
<g fill="#000" stroke="none">
<rect x="972.05" y="422.83" width="15.35" height="38.98"/>
<rect x="972.05" y="167.72" width="15.35" height="170.08"/>
</g>
<rect x="152.36" y="1015.75" width="167.72" height="15.35" stroke="none" fill="#000"/>
<rect x="309.45" y="866.34" width="10.63" height="149.41" stroke="none" fill="#333"/>
<rect x="152.36" y="858.66" width="15.35" height="157.09" stroke="none" fill="#000"/>
<g fill="#333" stroke="none">
<rect x="259.84" y="266.93" width="10.63" height="70.87"/>
<rect x="259.84" y="167.72" width="10.63" height="28.35"/>
</g>
<rect x="157.09" y="327.17" width="113.39" height="10.63" stroke="none" fill="#333"/>
<g fill="#333" stroke="none">
<rect x="872.83" y="266.93" width="10.63" height="42.52"/>
<rect x="872.83" y="167.72" width="10.63" height="14.17"/>
</g>
<rect x="872.83" y="298.82" width="99.21" height="10.63" stroke="none" fill="#333"/>
<rect x="972.05" y="588.19" width="70.87" height="15.35" stroke="none" fill="#000"/>
<rect x="972.05" y="745.28" width="70.87" height="15.35" stroke="none" fill="#000"/>
<g fill="#000" stroke="none">
<rect x="1042.91" y="731.1" width="15.35" height="29.53"/>
<rect x="1042.91" y="588.19" width="15.35" height="29.53"/>
</g>
</g>
<g class="opening cased-opening" stroke="#000" stroke-width="0.35mm" fill="none">
<line x1="677.95" y1="745.28" x2="688.58" y2="745.28"/>
<line x1="677.95" y1="745.28" x2="677.95" y2="761.22"/>
<line x1="688.58" y1="745.28" x2="688.58" y2="761.22"/>
<line x1="677.95" y1="575.2" x2="688.58" y2="575.2"/>
<line x1="677.95" y1="575.2" x2="677.95" y2="559.25"/>
<line x1="688.58" y1="575.2" x2="688.58" y2="559.25"/>
</g>
<g class="opening cased-opening" stroke="#000" stroke-width="0.35mm" fill="none">
<line x1="536.22" y1="451.18" x2="536.22" y2="461.81"/>
<line x1="536.22" y1="451.18" x2="520.28" y2="451.18"/>
<line x1="536.22" y1="461.81" x2="520.28" y2="461.81"/>
<line x1="649.61" y1="451.18" x2="649.61" y2="461.81"/>
<line x1="649.61" y1="451.18" x2="665.55" y2="451.18"/>
<line x1="649.61" y1="461.81" x2="665.55" y2="461.81"/>
</g>
<g class="opening door" stroke="#000" stroke-width="0.35mm" fill="none">
<line x1="196.06" y1="874.02" x2="196.06" y2="944.88"/>
<path d="M 196.06,944.88 A 70.87,70.87 0 0,0 266.93,874.02"/>
</g>
<g class="opening door" stroke="#000" stroke-width="0.35mm" fill="none">
<line x1="497.24" y1="451.18" x2="426.38" y2="451.18"/>
<path d="M 426.38,451.18 A 70.87,70.87 0 0,1 497.24,380.31"/>
</g>
<g class="opening door" stroke="#000" stroke-width="0.35mm" fill="none">
<line x1="536.22" y1="366.14" x2="536.22" y2="295.28"/>
<path d="M 536.22,295.28 A 70.87,70.87 0 0,1 607.09,366.14"/>
</g>
<g class="opening door" stroke="#000" stroke-width="0.35mm" fill="none">
<line x1="677.95" y1="451.18" x2="748.82" y2="451.18"/>
<path d="M 748.82,451.18 A 70.87,70.87 0 0,0 677.95,380.31"/>
</g>
<g class="opening door" stroke="#000" stroke-width="0.35mm" fill="none">
<line x1="422.83" y1="874.02" x2="422.83" y2="788.98"/>
<path d="M 422.83,788.98 A 85.04,85.04 0 0,0 337.8,874.02"/>
</g>
<g class="opening window" stroke="#000" stroke-width="0.35mm" fill="none">
<line x1="479.53" y1="862.5" x2="592.91" y2="862.5"/>
<line x1="479.53" y1="870.18" x2="592.91" y2="870.18"/>
</g>
<g class="opening window" stroke="#000" stroke-width="0.35mm" fill="none">
<line x1="156.2" y1="745.28" x2="156.2" y2="603.54"/>
<line x1="163.88" y1="745.28" x2="163.88" y2="603.54"/>
</g>
<g class="opening window" stroke="#000" stroke-width="0.35mm" fill="none">
<line x1="773.62" y1="862.5" x2="887.01" y2="862.5"/>
<line x1="773.62" y1="870.18" x2="887.01" y2="870.18"/>
</g>
<g class="opening window" stroke="#000" stroke-width="0.35mm" fill="none">
<line x1="327.17" y1="156.2" x2="440.55" y2="156.2"/>
<line x1="327.17" y1="163.88" x2="440.55" y2="163.88"/>
</g>
<g class="opening window" stroke="#000" stroke-width="0.35mm" fill="none">
<line x1="145.57" y1="437.01" x2="145.57" y2="351.97"/>
<line x1="153.25" y1="437.01" x2="153.25" y2="351.97"/>
</g>
<g class="opening window" stroke="#000" stroke-width="0.35mm" fill="none">
<line x1="716.93" y1="156.2" x2="830.31" y2="156.2"/>
<line x1="716.93" y1="163.88" x2="830.31" y2="163.88"/>
</g>
<g class="opening window" stroke="#000" stroke-width="0.35mm" fill="none">
<line x1="975.89" y1="422.83" x2="975.89" y2="337.8"/>
<line x1="983.56" y1="422.83" x2="983.56" y2="337.8"/>
</g>
<g class="opening door" stroke="#000" stroke-width="0.35mm" fill="none">
<line x1="259.84" y1="266.93" x2="188.98" y2="266.93"/>
<path d="M 188.98,266.93 A 70.87,70.87 0 0,1 259.84,196.06"/>
</g>
<g class="opening door" stroke="#000" stroke-width="0.35mm" fill="none">
<line x1="872.83" y1="181.89" x2="957.87" y2="181.89"/>
<path d="M 957.87,181.89 A 85.04,85.04 0 0,1 872.83,266.93"/>
</g>
<g class="opening window" stroke="#000" stroke-width="0.35mm" fill="none">
<line x1="1046.75" y1="731.1" x2="1046.75" y2="617.72"/>
<line x1="1054.43" y1="731.1" x2="1054.43" y2="617.72"/>
</g>
</g>
<g class="layer-labels">
<text x="422.83" y="660.24" fill="#000" font-family="'Helvetica','Arial',sans-serif" font-size="14.17" font-weight="500" text-anchor="middle" dominant-baseline="central">Living Room</text>
<text x="830.31" y="660.24" fill="#000" font-family="'Helvetica','Arial',sans-serif" font-size="14.17" font-weight="500" text-anchor="middle" dominant-baseline="central">Kitchen</text>
<text x="1007.48" y="674.41" fill="#000" font-family="'Helvetica','Arial',sans-serif" font-size="14.17" font-weight="500" text-anchor="middle" dominant-baseline="central">Bay Window</text>
<text x="592.91" y="408.66" fill="#000" font-family="'Helvetica','Arial',sans-serif" font-size="14.17" font-weight="500" text-anchor="middle" dominant-baseline="central">Hall</text>
<text x="327.17" y="309.45" fill="#000" font-family="'Helvetica','Arial',sans-serif" font-size="14.17" font-weight="500" text-anchor="middle" dominant-baseline="central">Bedroom 1</text>
<text x="213.78" y="252.76" fill="#000" font-family="'Helvetica','Arial',sans-serif" font-size="14.17" font-weight="500" text-anchor="middle" dominant-baseline="central">Walk-in Closet</text>
<text x="592.91" y="256.3" fill="#000" font-family="'Helvetica','Arial',sans-serif" font-size="14.17" font-weight="500" text-anchor="middle" dominant-baseline="central">Full Bath</text>
<text x="830.31" y="309.45" fill="#000" font-family="'Helvetica','Arial',sans-serif" font-size="14.17" font-weight="500" text-anchor="middle" dominant-baseline="central">Bedroom 2</text>
<text x="922.44" y="238.58" fill="#000" font-family="'Helvetica','Arial',sans-serif" font-size="14.17" font-weight="500" text-anchor="middle" dominant-baseline="central">Closet</text>
<text x="238.58" y="944.88" fill="#000" font-family="'Helvetica','Arial',sans-serif" font-size="14.17" font-weight="500" text-anchor="middle" dominant-baseline="central">Half Bath</text>
</g>
<g class="layer-dimensions">
<g class="chain-dimension" stroke="#555" stroke-width="0.18mm">
<line x1="152.36" y1="1035.35" x2="152.36" y2="1092.05"/>
<line x1="167.72" y1="1035.35" x2="167.72" y2="1092.05"/>
<line x1="309.45" y1="1035.35" x2="309.45" y2="1092.05"/>
<line x1="320.08" y1="1035.35" x2="320.08" y2="1092.05"/>
<line x1="152.36" y1="1087.8" x2="320.08" y2="1087.8"/>
<line x1="148.11" y1="1092.05" x2="156.61" y2="1083.54"/>
<line x1="163.46" y1="1092.05" x2="171.97" y2="1083.54"/>
<line x1="305.2" y1="1092.05" x2="313.7" y2="1083.54"/>
<text x="238.58" y="1080.71" stroke="none" fill="#000" font-family="'Helvetica','Arial',sans-serif" font-size="9.92" text-anchor="middle">5&apos;-0&quot;</text>
<line x1="315.83" y1="1092.05" x2="324.33" y2="1083.54"/>
</g>
<g class="chain-dimension" stroke="#555" stroke-width="0.18mm">
<line x1="152.36" y1="878.27" x2="152.36" y2="1134.57"/>
<line x1="167.72" y1="878.27" x2="167.72" y2="1134.57"/>
<line x1="677.95" y1="878.27" x2="677.95" y2="1134.57"/>
<line x1="688.58" y1="878.27" x2="688.58" y2="1134.57"/>
<line x1="972.05" y1="878.27" x2="972.05" y2="1134.57"/>
<line x1="987.4" y1="878.27" x2="987.4" y2="1134.57"/>
<line x1="152.36" y1="1130.31" x2="987.4" y2="1130.31"/>
<line x1="148.11" y1="1134.57" x2="156.61" y2="1126.06"/>
<line x1="163.46" y1="1134.57" x2="171.97" y2="1126.06"/>
<line x1="673.7" y1="1134.57" x2="682.2" y2="1126.06"/>
<text x="422.83" y="1123.23" stroke="none" fill="#000" font-family="'Helvetica','Arial',sans-serif" font-size="9.92" text-anchor="middle">18&apos;-0&quot;</text>
<line x1="684.33" y1="1134.57" x2="692.83" y2="1126.06"/>
<line x1="967.8" y1="1134.57" x2="976.3" y2="1126.06"/>
<text x="830.31" y="1123.23" stroke="none" fill="#000" font-family="'Helvetica','Arial',sans-serif" font-size="9.92" text-anchor="middle">10&apos;-0&quot;</text>
<line x1="983.15" y1="1134.57" x2="991.65" y2="1126.06"/>
</g>
<g class="chain-dimension" stroke="#555" stroke-width="0.18mm">
<line x1="152.36" y1="878.27" x2="152.36" y2="1177.09"/>
<line x1="987.4" y1="878.27" x2="987.4" y2="1177.09"/>
<line x1="152.36" y1="1172.83" x2="987.4" y2="1172.83"/>
<line x1="148.11" y1="1177.09" x2="156.61" y2="1168.58"/>
<line x1="983.15" y1="1177.09" x2="991.65" y2="1168.58"/>
<text x="569.88" y="1165.75" stroke="none" fill="#000" font-family="'Helvetica','Arial',sans-serif" font-size="9.92" text-anchor="middle">29&apos;-6&quot;</text>
</g>
<g class="chain-dimension" stroke="#555" stroke-width="0.18mm">
<line x1="137.48" y1="1031.1" x2="80.79" y2="1031.1"/>
<line x1="137.48" y1="1015.75" x2="80.79" y2="1015.75"/>
<line x1="137.48" y1="874.02" x2="80.79" y2="874.02"/>
<line x1="137.48" y1="858.66" x2="80.79" y2="858.66"/>
<line x1="137.48" y1="461.81" x2="80.79" y2="461.81"/>
<line x1="137.48" y1="451.18" x2="80.79" y2="451.18"/>
<line x1="137.48" y1="167.72" x2="80.79" y2="167.72"/>
<line x1="137.48" y1="152.36" x2="80.79" y2="152.36"/>
<line x1="85.04" y1="1031.1" x2="85.04" y2="152.36"/>
<line x1="80.79" y1="1035.35" x2="89.29" y2="1026.85"/>
<line x1="80.79" y1="1020" x2="89.29" y2="1011.5"/>
<line x1="80.79" y1="878.27" x2="89.29" y2="869.76"/>
<text x="77.95" y="944.88" stroke="none" fill="#000" font-family="'Helvetica','Arial',sans-serif" font-size="9.92" text-anchor="middle" transform="rotate(-90, 77.95, 944.88)">5&apos;-0&quot;</text>
<line x1="80.79" y1="862.91" x2="89.29" y2="854.41"/>
<line x1="80.79" y1="466.06" x2="89.29" y2="457.56"/>
<text x="77.95" y="660.24" stroke="none" fill="#000" font-family="'Helvetica','Arial',sans-serif" font-size="9.92" text-anchor="middle" transform="rotate(-90, 77.95, 660.24)">14&apos;-0&quot;</text>
<line x1="80.79" y1="455.43" x2="89.29" y2="446.93"/>
<line x1="80.79" y1="171.97" x2="89.29" y2="163.46"/>
<text x="77.95" y="309.45" stroke="none" fill="#000" font-family="'Helvetica','Arial',sans-serif" font-size="9.92" text-anchor="middle" transform="rotate(-90, 77.95, 309.45)">10&apos;-0&quot;</text>
<line x1="80.79" y1="156.61" x2="89.29" y2="148.11"/>
</g>
<g class="chain-dimension" stroke="#555" stroke-width="0.18mm">
<line x1="137.48" y1="1031.1" x2="38.27" y2="1031.1"/>
<line x1="137.48" y1="152.36" x2="38.27" y2="152.36"/>
<line x1="42.52" y1="1031.1" x2="42.52" y2="152.36"/>
<line x1="38.27" y1="1035.35" x2="46.77" y2="1026.85"/>
<line x1="38.27" y1="156.61" x2="46.77" y2="148.11"/>
<text x="35.43" y="591.73" stroke="none" fill="#000" font-family="'Helvetica','Arial',sans-serif" font-size="9.92" text-anchor="middle" transform="rotate(-90, 35.43, 591.73)">31&apos;-0&quot;</text>
</g>
<g class="chain-dimension" stroke="#555" stroke-width="0.18mm">
<line x1="991.65" y1="874.02" x2="1119.21" y2="874.02"/>
<line x1="991.65" y1="858.66" x2="1119.21" y2="858.66"/>
<line x1="991.65" y1="461.81" x2="1119.21" y2="461.81"/>
<line x1="991.65" y1="451.18" x2="1119.21" y2="451.18"/>
<line x1="991.65" y1="167.72" x2="1119.21" y2="167.72"/>
<line x1="991.65" y1="152.36" x2="1119.21" y2="152.36"/>
<line x1="1114.96" y1="874.02" x2="1114.96" y2="152.36"/>
<line x1="1110.71" y1="878.27" x2="1119.21" y2="869.76"/>
<line x1="1110.71" y1="862.91" x2="1119.21" y2="854.41"/>
<line x1="1110.71" y1="466.06" x2="1119.21" y2="457.56"/>
<text x="1107.87" y="660.24" stroke="none" fill="#000" font-family="'Helvetica','Arial',sans-serif" font-size="9.92" text-anchor="middle" transform="rotate(-90, 1107.87, 660.24)">14&apos;-0&quot;</text>
<line x1="1110.71" y1="455.43" x2="1119.21" y2="446.93"/>
<line x1="1110.71" y1="171.97" x2="1119.21" y2="163.46"/>
<text x="1107.87" y="309.45" stroke="none" fill="#000" font-family="'Helvetica','Arial',sans-serif" font-size="9.92" text-anchor="middle" transform="rotate(-90, 1107.87, 309.45)">10&apos;-0&quot;</text>
<line x1="1110.71" y1="156.61" x2="1119.21" y2="148.11"/>
</g>
<g class="chain-dimension" stroke="#555" stroke-width="0.18mm">
<line x1="991.65" y1="874.02" x2="1161.73" y2="874.02"/>
<line x1="991.65" y1="152.36" x2="1161.73" y2="152.36"/>
<line x1="1157.48" y1="874.02" x2="1157.48" y2="152.36"/>
<line x1="1153.23" y1="878.27" x2="1161.73" y2="869.76"/>
<line x1="1153.23" y1="156.61" x2="1161.73" y2="148.11"/>
<text x="1150.39" y="513.19" stroke="none" fill="#000" font-family="'Helvetica','Arial',sans-serif" font-size="9.92" text-anchor="middle" transform="rotate(-90, 1150.39, 513.19)">25&apos;-6&quot;</text>
</g>
<g class="chain-dimension" stroke="#555" stroke-width="0.18mm">
<line x1="141.73" y1="148.11" x2="141.73" y2="91.42"/>
<line x1="157.09" y1="148.11" x2="157.09" y2="91.42"/>
<line x1="497.24" y1="148.11" x2="497.24" y2="91.42"/>
<line x1="507.87" y1="148.11" x2="507.87" y2="91.42"/>
<line x1="677.95" y1="148.11" x2="677.95" y2="91.42"/>
<line x1="688.58" y1="148.11" x2="688.58" y2="91.42"/>
<line x1="972.05" y1="148.11" x2="972.05" y2="91.42"/>
<line x1="987.4" y1="148.11" x2="987.4" y2="91.42"/>
<line x1="141.73" y1="95.67" x2="987.4" y2="95.67"/>
<line x1="137.48" y1="99.92" x2="145.98" y2="91.42"/>
<line x1="152.83" y1="99.92" x2="161.34" y2="91.42"/>
<line x1="492.99" y1="99.92" x2="501.5" y2="91.42"/>
<text x="327.17" y="88.58" stroke="none" fill="#000" font-family="'Helvetica','Arial',sans-serif" font-size="9.92" text-anchor="middle">12&apos;-0&quot;</text>
<line x1="503.62" y1="99.92" x2="512.13" y2="91.42"/>
<line x1="673.7" y1="99.92" x2="682.2" y2="91.42"/>
<text x="592.91" y="88.58" stroke="none" fill="#000" font-family="'Helvetica','Arial',sans-serif" font-size="9.92" text-anchor="middle">6&apos;-0&quot;</text>
<line x1="684.33" y1="99.92" x2="692.83" y2="91.42"/>
<line x1="967.8" y1="99.92" x2="976.3" y2="91.42"/>
<text x="830.31" y="88.58" stroke="none" fill="#000" font-family="'Helvetica','Arial',sans-serif" font-size="9.92" text-anchor="middle">10&apos;-0&quot;</text>
<line x1="983.15" y1="99.92" x2="991.65" y2="91.42"/>
</g>
<g class="chain-dimension" stroke="#555" stroke-width="0.18mm">
<line x1="141.73" y1="148.11" x2="141.73" y2="48.9"/>
<line x1="987.4" y1="148.11" x2="987.4" y2="48.9"/>
<line x1="141.73" y1="53.15" x2="987.4" y2="53.15"/>
<line x1="137.48" y1="57.4" x2="145.98" y2="48.9"/>
<line x1="983.15" y1="57.4" x2="991.65" y2="48.9"/>
<text x="564.57" y="46.06" stroke="none" fill="#000" font-family="'Helvetica','Arial',sans-serif" font-size="9.92" text-anchor="middle">29&apos;-10&quot;</text>
</g>
<g class="chain-dimension" stroke="#555" stroke-width="0.18mm">
<line x1="507.87" y1="455.43" x2="507.87" y2="512.13"/>
<line x1="677.95" y1="455.43" x2="677.95" y2="512.13"/>
<line x1="507.87" y1="507.87" x2="677.95" y2="507.87"/>
<line x1="503.62" y1="512.13" x2="512.13" y2="503.62"/>
<line x1="673.7" y1="512.13" x2="682.2" y2="503.62"/>
<text x="592.91" y="500.79" stroke="none" fill="#000" font-family="'Helvetica','Arial',sans-serif" font-size="9.92" text-anchor="middle">6&apos;-0&quot;</text>
</g>
<g class="chain-dimension" stroke="#555" stroke-width="0.18mm">
<line x1="503.62" y1="451.18" x2="446.93" y2="451.18"/>
<line x1="503.62" y1="366.14" x2="446.93" y2="366.14"/>
<line x1="451.18" y1="451.18" x2="451.18" y2="366.14"/>
<line x1="446.93" y1="455.43" x2="455.43" y2="446.93"/>
<line x1="446.93" y1="370.39" x2="455.43" y2="361.89"/>
<text x="444.09" y="408.66" stroke="none" fill="#000" font-family="'Helvetica','Arial',sans-serif" font-size="9.92" text-anchor="middle" transform="rotate(-90, 444.09, 408.66)">3&apos;-0&quot;</text>
</g>
<g class="chain-dimension" stroke="#555" stroke-width="0.18mm">
<line x1="503.62" y1="355.51" x2="446.93" y2="355.51"/>
<line x1="503.62" y1="157.09" x2="446.93" y2="157.09"/>
<line x1="451.18" y1="355.51" x2="451.18" y2="157.09"/>
<line x1="446.93" y1="359.76" x2="455.43" y2="351.26"/>
<line x1="446.93" y1="161.34" x2="455.43" y2="152.83"/>
<text x="444.09" y="256.3" stroke="none" fill="#000" font-family="'Helvetica','Arial',sans-serif" font-size="9.92" text-anchor="middle" transform="rotate(-90, 444.09, 256.3)">7&apos;-0&quot;</text>
</g>
<g class="chain-dimension" stroke="#555" stroke-width="0.18mm">
<line x1="1062.52" y1="745.28" x2="1090.87" y2="745.28"/>
<line x1="1062.52" y1="603.54" x2="1090.87" y2="603.54"/>
<line x1="1086.61" y1="745.28" x2="1086.61" y2="603.54"/>
<line x1="1082.36" y1="749.53" x2="1090.87" y2="741.02"/>
<line x1="1082.36" y1="607.8" x2="1090.87" y2="599.29"/>
<text x="1079.53" y="674.41" stroke="none" fill="#000" font-family="'Helvetica','Arial',sans-serif" font-size="9.92" text-anchor="middle" transform="rotate(-90, 1079.53, 674.41)">5&apos;-0&quot;</text>
</g>
<g class="chain-dimension" stroke="#555" stroke-width="0.18mm">
<line x1="972.05" y1="878.27" x2="972.05" y2="906.61"/>
<line x1="1042.91" y1="764.88" x2="1042.91" y2="906.61"/>
<line x1="972.05" y1="902.36" x2="1042.91" y2="902.36"/>
<line x1="967.8" y1="906.61" x2="976.3" y2="898.11"/>
<line x1="1038.66" y1="906.61" x2="1047.17" y2="898.11"/>
<text x="1007.48" y="895.28" stroke="none" fill="#000" font-family="'Helvetica','Arial',sans-serif" font-size="9.92" text-anchor="middle">2&apos;-6&quot;</text>
</g>
<g class="chain-dimension" stroke="#555" stroke-width="0.18mm">
<line x1="274.72" y1="337.8" x2="303.07" y2="337.8"/>
<line x1="274.72" y1="167.72" x2="303.07" y2="167.72"/>
<line x1="298.82" y1="337.8" x2="298.82" y2="167.72"/>
<line x1="294.57" y1="342.05" x2="303.07" y2="333.54"/>
<line x1="294.57" y1="171.97" x2="303.07" y2="163.46"/>
<text x="291.73" y="252.76" stroke="none" fill="#000" font-family="'Helvetica','Arial',sans-serif" font-size="9.92" text-anchor="middle" transform="rotate(-90, 291.73, 252.76)">6&apos;-0&quot;</text>
</g>
<g class="chain-dimension" stroke="#555" stroke-width="0.18mm">
<line x1="157.09" y1="342.05" x2="157.09" y2="370.39"/>
<line x1="270.47" y1="342.05" x2="270.47" y2="370.39"/>
<line x1="157.09" y1="366.14" x2="270.47" y2="366.14"/>
<line x1="152.83" y1="370.39" x2="161.34" y2="361.89"/>
<line x1="266.22" y1="370.39" x2="274.72" y2="361.89"/>
<text x="213.78" y="359.06" stroke="none" fill="#000" font-family="'Helvetica','Arial',sans-serif" font-size="9.92" text-anchor="middle">4&apos;-0&quot;</text>
</g>
<g class="chain-dimension" stroke="#555" stroke-width="0.18mm">
<line x1="868.58" y1="309.45" x2="840.24" y2="309.45"/>
<line x1="868.58" y1="167.72" x2="840.24" y2="167.72"/>
<line x1="844.49" y1="309.45" x2="844.49" y2="167.72"/>
<line x1="840.24" y1="313.7" x2="848.74" y2="305.2"/>
<line x1="840.24" y1="171.97" x2="848.74" y2="163.46"/>
<text x="837.4" y="238.58" stroke="none" fill="#000" font-family="'Helvetica','Arial',sans-serif" font-size="9.92" text-anchor="middle" transform="rotate(-90, 837.4, 238.58)">5&apos;-0&quot;</text>
</g>
<g class="chain-dimension" stroke="#555" stroke-width="0.18mm">
<line x1="872.83" y1="313.7" x2="872.83" y2="342.05"/>
<line x1="972.05" y1="313.7" x2="972.05" y2="342.05"/>
<line x1="872.83" y1="337.8" x2="972.05" y2="337.8"/>
<line x1="868.58" y1="342.05" x2="877.09" y2="333.54"/>
<line x1="967.8" y1="342.05" x2="976.3" y2="333.54"/>
<text x="922.44" y="330.71" stroke="none" fill="#000" font-family="'Helvetica','Arial',sans-serif" font-size="9.92" text-anchor="middle">3&apos;-6&quot;</text>
</g>
</g>
<g class="layer-electrical">
<g class="electrical">
<g class="electrical-panel">
<rect x="692.13" y="809.06" width="28.35" height="42.52" stroke="#000" stroke-width="0.4mm" fill="#fff"/>
<text x="706.3" y="823.94" fill="#000" font-family="sans-serif" font-size="6.24" font-weight="bold" text-anchor="middle" dominant-baseline="central">PANEL</text>
<text x="706.3" y="838.82" fill="#000" font-family="sans-serif" font-size="5.1" text-anchor="middle" dominant-baseline="central">200A</text>
<text x="706.3" y="855.83" fill="#666" font-family="sans-serif" font-size="4.54" text-anchor="middle" dominant-baseline="hanging">Main Panel</text>
</g>
<polyline points="706.3,830.31 422.83,830.31 422.83,660.24" stroke="#333" stroke-width="0.25mm" fill="none"/>
<polyline points="706.3,830.31 819.69,830.31 819.69,660.24" stroke="#333" stroke-width="0.25mm" fill="none"/>
<g class="outlet outlet-duplex">
<circle cx="451.18" cy="866.34" r="9.92" stroke="#000" stroke-width="0.3mm" fill="#fff"/>
<line x1="444.24" y1="862.87" x2="458.13" y2="862.87" stroke="#000" stroke-width="0.3mm" fill="none"/>
<line x1="444.24" y1="869.81" x2="458.13" y2="869.81" stroke="#000" stroke-width="0.3mm" fill="none"/>
</g>
<g class="outlet outlet-duplex">
<circle cx="160.04" cy="611.22" r="9.92" stroke="#000" stroke-width="0.3mm" fill="#fff"/>
<line x1="153.09" y1="607.75" x2="166.98" y2="607.75" stroke="#000" stroke-width="0.3mm" fill="none"/>
<line x1="153.09" y1="614.69" x2="166.98" y2="614.69" stroke="#000" stroke-width="0.3mm" fill="none"/>
</g>
<g class="outlet outlet-gfci">
<circle cx="773.62" cy="866.34" r="9.92" stroke="#000" stroke-width="0.3mm" fill="#fff"/>
<text x="773.62" y="880.51" fill="#000" font-size="6.94" text-anchor="middle" dominant-baseline="hanging">GFI</text>
</g>
<g class="outlet outlet-gfci">
<circle cx="830.31" cy="456.5" r="9.92" stroke="#000" stroke-width="0.3mm" fill="#fff"/>
<text x="830.31" y="470.67" fill="#000" font-size="6.94" text-anchor="middle" dominant-baseline="hanging">GFI</text>
</g>
<g class="outlet outlet-duplex">
<circle cx="327.17" cy="160.04" r="9.92" stroke="#000" stroke-width="0.3mm" fill="#fff"/>
<line x1="320.22" y1="156.57" x2="334.11" y2="156.57" stroke="#000" stroke-width="0.3mm" fill="none"/>
<line x1="320.22" y1="163.51" x2="334.11" y2="163.51" stroke="#000" stroke-width="0.3mm" fill="none"/>
</g>
<g class="outlet outlet-duplex">
<circle cx="149.41" cy="405.12" r="9.92" stroke="#000" stroke-width="0.3mm" fill="#fff"/>
<line x1="142.46" y1="401.65" x2="156.35" y2="401.65" stroke="#000" stroke-width="0.3mm" fill="none"/>
<line x1="142.46" y1="408.59" x2="156.35" y2="408.59" stroke="#000" stroke-width="0.3mm" fill="none"/>
</g>
<g class="outlet outlet-duplex">
<circle cx="830.31" cy="160.04" r="9.92" stroke="#000" stroke-width="0.3mm" fill="#fff"/>
<line x1="823.37" y1="156.57" x2="837.26" y2="156.57" stroke="#000" stroke-width="0.3mm" fill="none"/>
<line x1="823.37" y1="163.51" x2="837.26" y2="163.51" stroke="#000" stroke-width="0.3mm" fill="none"/>
</g>
<g class="outlet outlet-duplex">
<circle cx="979.72" cy="376.77" r="9.92" stroke="#000" stroke-width="0.3mm" fill="#fff"/>
<line x1="972.78" y1="373.3" x2="986.67" y2="373.3" stroke="#000" stroke-width="0.3mm" fill="none"/>
<line x1="972.78" y1="380.24" x2="986.67" y2="380.24" stroke="#000" stroke-width="0.3mm" fill="none"/>
</g>
<g class="outlet outlet-gfci">
<circle cx="683.27" cy="270.47" r="9.92" stroke="#000" stroke-width="0.3mm" fill="#fff"/>
<text x="683.27" y="284.65" fill="#000" font-size="6.94" text-anchor="middle" dominant-baseline="hanging">GFI</text>
</g>
<g class="outlet outlet-gfci">
<circle cx="314.76" cy="959.06" r="9.92" stroke="#000" stroke-width="0.3mm" fill="#fff"/>
<text x="314.76" y="973.23" fill="#000" font-size="6.94" text-anchor="middle" dominant-baseline="hanging">GFI</text>
</g>
<g class="switch switch-single">
<circle cx="281.1" cy="866.34" r="9.92" stroke="#000" stroke-width="0.3mm" fill="#fff"/>
<text x="281.1" y="866.34" fill="#000" font-family="sans-serif" font-size="10.91" font-weight="bold" text-anchor="middle" dominant-baseline="central">S</text>
</g>
<g class="switch switch-single">
<circle cx="683.27" cy="801.97" r="9.92" stroke="#000" stroke-width="0.3mm" fill="#fff"/>
<text x="683.27" y="801.97" fill="#000" font-family="sans-serif" font-size="10.91" font-weight="bold" text-anchor="middle" dominant-baseline="central">S</text>
</g>
<g class="switch switch-single">
<circle cx="479.53" cy="456.5" r="9.92" stroke="#000" stroke-width="0.3mm" fill="#fff"/>
<text x="479.53" y="456.5" fill="#000" font-family="sans-serif" font-size="10.91" font-weight="bold" text-anchor="middle" dominant-baseline="central">S</text>
</g>
<g class="switch switch-single">
<circle cx="716.93" cy="456.5" r="9.92" stroke="#000" stroke-width="0.3mm" fill="#fff"/>
<text x="716.93" y="456.5" fill="#000" font-family="sans-serif" font-size="10.91" font-weight="bold" text-anchor="middle" dominant-baseline="central">S</text>
</g>
<g class="switch switch-single">
<circle cx="635.43" cy="360.83" r="9.92" stroke="#000" stroke-width="0.3mm" fill="#fff"/>
<text x="635.43" y="360.83" fill="#000" font-family="sans-serif" font-size="10.91" font-weight="bold" text-anchor="middle" dominant-baseline="central">S</text>
</g>
<g class="light-fixture light-recessed">
<rect x="410.93" y="648.33" width="23.81" height="23.81" stroke="#000" stroke-width="0.3mm" fill="none"/>
<circle cx="422.83" cy="660.24" r="6.94" stroke="#000" stroke-width="0.3mm" fill="none"/>
</g>
<g class="light-fixture light-surface">
<circle cx="819.69" cy="660.24" r="9.92" stroke="#000" stroke-width="0.3mm" fill="none"/>
<line x1="809.16" y1="649.71" x2="812.67" y2="653.22" stroke="#000" stroke-width="0.3mm" fill="none"/>
<line x1="830.21" y1="649.71" x2="826.7" y2="653.22" stroke="#000" stroke-width="0.3mm" fill="none"/>
<line x1="809.16" y1="670.76" x2="812.67" y2="667.25" stroke="#000" stroke-width="0.3mm" fill="none"/>
<line x1="830.21" y1="670.76" x2="826.7" y2="667.25" stroke="#000" stroke-width="0.3mm" fill="none"/>
</g>
<g class="light-fixture light-surface">
<circle cx="337.8" cy="320.08" r="9.92" stroke="#000" stroke-width="0.3mm" fill="none"/>
<line x1="327.27" y1="309.56" x2="330.78" y2="313.06" stroke="#000" stroke-width="0.3mm" fill="none"/>
<line x1="348.32" y1="309.56" x2="344.81" y2="313.06" stroke="#000" stroke-width="0.3mm" fill="none"/>
<line x1="327.27" y1="330.6" x2="330.78" y2="327.09" stroke="#000" stroke-width="0.3mm" fill="none"/>
<line x1="348.32" y1="330.6" x2="344.81" y2="327.09" stroke="#000" stroke-width="0.3mm" fill="none"/>
</g>
<g class="light-fixture light-surface">
<circle cx="819.69" cy="320.08" r="9.92" stroke="#000" stroke-width="0.3mm" fill="none"/>
<line x1="809.16" y1="309.56" x2="812.67" y2="313.06" stroke="#000" stroke-width="0.3mm" fill="none"/>
<line x1="830.21" y1="309.56" x2="826.7" y2="313.06" stroke="#000" stroke-width="0.3mm" fill="none"/>
<line x1="809.16" y1="330.6" x2="812.67" y2="327.09" stroke="#000" stroke-width="0.3mm" fill="none"/>
<line x1="830.21" y1="330.6" x2="826.7" y2="327.09" stroke="#000" stroke-width="0.3mm" fill="none"/>
</g>
<g class="light-fixture light-surface">
<circle cx="592.91" cy="291.73" r="9.92" stroke="#000" stroke-width="0.3mm" fill="none"/>
<line x1="582.39" y1="281.21" x2="585.9" y2="284.72" stroke="#000" stroke-width="0.3mm" fill="none"/>
<line x1="603.44" y1="281.21" x2="599.93" y2="284.72" stroke="#000" stroke-width="0.3mm" fill="none"/>
<line x1="582.39" y1="302.26" x2="585.9" y2="298.75" stroke="#000" stroke-width="0.3mm" fill="none"/>
<line x1="603.44" y1="302.26" x2="599.93" y2="298.75" stroke="#000" stroke-width="0.3mm" fill="none"/>
</g>
<g class="smoke-detector">
<circle cx="422.83" cy="575.2" r="9.92" stroke="#000" stroke-width="0.3mm" fill="none"/>
<text x="422.83" y="575.2" fill="#000" font-family="sans-serif" font-size="8.93" text-anchor="middle" dominant-baseline="central">S/CO</text>
</g>
<g class="smoke-detector">
<circle cx="337.8" cy="376.77" r="9.92" stroke="#000" stroke-width="0.3mm" fill="none"/>
<text x="337.8" y="376.77" fill="#000" font-family="sans-serif" font-size="8.93" text-anchor="middle" dominant-baseline="central">S/CO</text>
</g>
</g>
</g>
<g class="layer-plumbing">
<g class="plumbing">
<polyline points="774.8,487.8 759.45,461.81" stroke="#0000CC" stroke-width="0.4mm" fill="none"/>
<text x="763.7" y="461.81" fill="#0000CC" font-family="sans-serif" font-size="4.25" text-anchor="start" dominant-baseline="central">1/2in</text>
<polyline points="774.8,487.8 787.8,461.81" stroke="#CC0000" stroke-width="0.4mm" fill="none"/>
<text x="792.05" y="461.81" fill="#CC0000" font-family="sans-serif" font-size="4.25" text-anchor="start" dominant-baseline="central">1/2in</text>
<polyline points="659.06,242.13 677.95,256.3" stroke="#0000CC" stroke-width="0.4mm" fill="none"/>
<text x="682.2" y="256.3" fill="#0000CC" font-family="sans-serif" font-size="4.25" text-anchor="start" dominant-baseline="central">1/2in</text>
<polyline points="659.06,242.13 677.95,227.95" stroke="#CC0000" stroke-width="0.4mm" fill="none"/>
<text x="682.2" y="227.95" fill="#CC0000" font-family="sans-serif" font-size="4.25" text-anchor="start" dominant-baseline="central">1/2in</text>
<polyline points="644.88,327.17 677.95,327.17" stroke="#006600" stroke-width="0.5mm" fill="none"/>
<polyline points="252.76,982.68 196.06,1015.75" stroke="#006600" stroke-width="0.5mm" fill="none"/>
<g class="plumbing-fixture fixture-kitchen-sink">
<rect x="735.83" y="461.81" width="77.95" height="51.97" stroke="#000" stroke-width="0.3mm" fill="none"/>
<line x1="774.8" y1="461.81" x2="774.8" y2="513.78" stroke="#000" stroke-width="0.3mm" fill="none"/>
</g>
<g class="plumbing-fixture fixture-bathtub">
<rect x="522.05" y="157.09" width="141.73" height="42.52" stroke="#000" stroke-width="0.3mm" fill="none"/>
<path d="M 522.05,199.61 A 70.87,28.35 0 0,1 663.78,199.61" stroke="#000" stroke-width="0.3mm" fill="none"/>
<line x1="522.05" y1="157.09" x2="522.05" y2="199.61" stroke="#000" stroke-width="0.3mm" fill="none"/>
<line x1="663.78" y1="157.09" x2="663.78" y2="199.61" stroke="#000" stroke-width="0.3mm" fill="none"/>
</g>
<g class="plumbing-fixture fixture-toilet" transform="rotate(90, 644.8818897637796, 327.1653543307086)">
<rect x="627.87" y="294.09" width="34.02" height="16.54" stroke="#000" stroke-width="0.3mm" fill="none"/>
<ellipse cx="644.88" cy="333.78" rx="21.26" ry="26.46" stroke="#000" stroke-width="0.3mm" fill="none"/>
</g>
<g class="plumbing-fixture fixture-bath-sink" transform="rotate(90, 659.0551181102362, 242.12598425196848)">
<ellipse cx="659.06" cy="242.13" rx="23.62" ry="18.9" stroke="#000" stroke-width="0.3mm" fill="none"/>
</g>
<g class="plumbing-fixture fixture-bath-sink" transform="rotate(180, 196.06299212598424, 996.8503937007874)">
<ellipse cx="196.06" cy="996.85" rx="23.62" ry="18.9" stroke="#000" stroke-width="0.3mm" fill="none"/>
</g>
<g class="plumbing-fixture fixture-toilet" transform="rotate(180, 252.755905511811, 982.6771653543308)">
<rect x="235.75" y="949.61" width="34.02" height="16.54" stroke="#000" stroke-width="0.3mm" fill="none"/>
<ellipse cx="252.76" cy="989.29" rx="21.26" ry="26.46" stroke="#000" stroke-width="0.3mm" fill="none"/>
</g>
</g>
</g>
<g class="layer-title-block">
<g class="title-block" font-family="'Helvetica','Arial',sans-serif" fill="#000">
<rect x="830" y="1172.83" width="350" height="140" stroke="#000" stroke-width="0.50" fill="white"/>
<line x1="830" y1="1262.83" x2="1180" y2="1262.83" stroke="#000" stroke-width="0.35"/>
<text x="842" y="1196.83" font-size="18" font-weight="bold">Small Two-Bedroom House</text>
<text x="842" y="1218.83" font-size="13">456 Oak Avenue, Anytown, ST 12345</text>
<text x="842" y="1238.83" font-size="13">John Doe</text>
<text x="842" y="1282.83" font-size="12">Sheet: A1</text>
<text x="1015" y="1282.83" font-size="12">Date: 2026-02-13</text>
<text x="842" y="1300.83" font-size="12">Scale: 1/4in = 1ft</text>
<text x="1015" y="1300.83" fill="#666" font-size="10">FloorScript v0.1</text>
</g>
</g>
</svg>